<?xml version="1.0" encoding="UTF-8"?><svg id="Layer_1" xmlns="http://www.w3.org/2000/svg" xmlns:xlink="http://www.w3.org/1999/xlink" viewBox="0 0 1572.89 1800.06"><defs><style>.cls-1{fill:#e64edf;}.cls-2{fill:#df31d8;}.cls-3{fill:#f58df0;}.cls-4{fill:#e756e2;}.cls-5{fill:#e754e1;}.cls-6{fill:url(#linear-gradient-2);}.cls-7{fill:#ed6ee8;}.cls-8{fill:#f07aeb;}.cls-9{fill:#e650e0;}.cls-10{fill:#de2fd7;}.cls-11{fill:#f48bf0;}.cls-12{fill:#df32d8;}.cls-13{fill:#f17fed;}.cls-14{fill:#e23fdc;}.cls-15{fill:#e342dc;}.cls-16{fill:#f280ed;}.cls-17{fill:#e858e2;}.cls-18{fill:#ea60e4;}.cls-19{fill:#f283ee;}.cls-20{fill:#e13bda;}.cls-21{fill:#e037d9;}.cls-22{fill:#f078eb;}.cls-23{fill:#ea61e4;}.cls-24{fill:#e139da;}.cls-25{fill:#e652e1;}.cls-26{fill:#df34d9;}.cls-27{fill:#ed6be7;}.cls-28{fill:#e857e2;}.cls-29{fill:#ed6ce8;}.cls-30{fill:#f7cafc;}.cls-31{fill:#ea5fe4;}.cls-32{fill:#ee72e9;}.cls-33{fill:#f282ed;}.cls-34{fill:#f17cec;}.cls-35{fill:#f795f2;}.cls-36{fill:#ef74ea;}.cls-37{fill:#e23ddb;}.cls-38{fill:#f388ef;}.cls-39{fill:#ec6ae7;}.cls-40{fill:#f797f3;}.cls-41{fill:#e036d9;}.cls-42{fill:#f89af4;}.cls-43{fill:#f48cf0;}.cls-44{fill:#e753e1;}.cls-45{fill:#ec68e7;}.cls-46{fill:#f07bec;}.cls-47{fill:#e447de;}.cls-48{fill:#e64fe0;}.cls-49{fill:#e035d9;}.cls-50{fill:#dd2ad6;}.cls-51{fill:#f386ee;}.cls-52{fill:#ef73e9;}.cls-53{fill:#e240dc;}.cls-54{fill:#f384ee;}.cls-55{fill:#e755e1;}.cls-56{fill:#f17eec;}.cls-57{fill:#f58ef1;}.cls-58{fill:#eb64e6;}.cls-59{fill:#e54cdf;}.cls-60{fill:#e241dc;}.cls-61{fill:#e446dd;}.cls-62{fill:#ec69e7;}.cls-63{fill:#eb66e6;}.cls-64{fill:#e448de;}.cls-65{fill:#e345dd;}.cls-66{fill:#ee6fe8;}.cls-67{fill:#e449de;}.cls-68{fill:#f691f1;}.cls-69{fill:#e95ee4;}.cls-70{fill:#eb63e5;}.cls-71{fill:#ef75ea;}.cls-72{fill:#e859e2;}.cls-73{fill:#ee71e9;}.cls-74{fill:#e13cdb;}.cls-75{fill:#e343dd;}.cls-76{fill:#f899f3;}.cls-77{fill:none;stroke:#f7cafc;stroke-miterlimit:10;}.cls-78{fill:#ec67e6;}.cls-79{fill:#ea62e5;}.cls-80{fill:#f079eb;}.cls-81{fill:#e13ada;}.cls-82{fill:#ef77eb;}.cls-83{fill:#e95de3;}.cls-84{fill:#f58ff1;}.cls-85{fill:#f692f2;}.cls-86{fill:#dd2bd6;}.cls-87{fill:#e95ce3;}.cls-88{fill:#e85ae3;}.cls-89{fill:#df33d8;}.cls-90{fill:#ed6de8;}.cls-91{fill:#e344dd;}.cls-92{fill:#ee70e9;}.cls-93{fill:#e54bdf;}.cls-94{fill:#eb65e6;}.cls-95{fill:#f693f2;}.cls-96{fill:#f281ed;}.cls-97{fill:#f48af0;}.cls-98{fill:#de30d8;}.cls-99{fill:url(#linear-gradient-3);}.cls-100{fill:#f694f2;}.cls-101{fill:url(#linear-gradient);}.cls-102{fill:#de2ed7;}.cls-103{fill:#f590f1;}.cls-104{fill:#f798f3;}.cls-105{fill:#f796f3;}.cls-106{fill:#dd2cd7;}.cls-107{fill:#ef76ea;}.cls-108{fill:#f17dec;}.cls-109{fill:#f387ef;}.cls-110{fill:#de2dd7;}.cls-111{fill:#e651e0;}.cls-112{fill:#e54ddf;}.cls-113{fill:#f89bf4;}.cls-114{fill:#13678a;}.cls-115{fill:#e038da;}.cls-116{fill:#e95be3;}.cls-117{fill:#e23edb;}.cls-118{fill:#f489ef;}.cls-119{fill:#f385ee;}.cls-120{fill:#e54ade;}</style><linearGradient id="linear-gradient" x1="405.78" y1="-217.58" x2="405.78" y2="343.1" gradientTransform="translate(147.87 506.2) rotate(-30) skewX(-30)" gradientUnits="userSpaceOnUse"><stop offset="0" stop-color="#fff" stop-opacity="0"/><stop offset="1" stop-color="#dd2ad6"/></linearGradient><linearGradient id="linear-gradient-2" x1="390.78" y1="1983.03" x2="390.78" y2="1422.18" gradientTransform="translate(158.59 -737.12) rotate(30) skewX(30)" xlink:href="#linear-gradient"/><linearGradient id="linear-gradient-3" x1="978.05" y1="1322.28" x2="978.05" y2="873.09" gradientTransform="translate(-688.3 992.09) rotate(-30) skewX(30)" gradientUnits="userSpaceOnUse"><stop offset="0" stop-color="#fff" stop-opacity="0"/><stop offset="1" stop-color="#f89bf4"/></linearGradient></defs><ellipse class="cls-30" cx="767.02" cy="946.44" rx="588.21" ry="339.58" transform="translate(-5.94 4.84) rotate(-.36)"/><g><path class="cls-114" d="M635.29,468.83h-91.36l-17.43,42.16h-46.66l87.7-196.77h44.98l87.98,196.77h-47.79l-17.43-42.16Zm-14.34-34.58l-31.2-75.34-31.2,75.34h62.4Z"/><path class="cls-114" d="M870.57,302.42v208.58h-41.88v-17.43c-10.96,13.21-26.99,19.68-47.22,19.68-42.73,0-75.62-30.36-75.62-77.86s32.89-77.86,75.62-77.86c18.55,0,34.29,5.9,45.26,18.27v-73.37h43.85Zm-43.01,132.96c0-26.14-16.87-41.88-38.51-41.88s-38.79,15.74-38.79,41.88,16.87,41.88,38.79,41.88,38.51-15.74,38.51-41.88Z"/><path class="cls-114" d="M1065.09,302.42v208.58h-41.88v-17.43c-10.96,13.21-26.99,19.68-47.22,19.68-42.73,0-75.62-30.36-75.62-77.86s32.89-77.86,75.62-77.86c18.55,0,34.29,5.9,45.26,18.27v-73.37h43.85Zm-43.01,132.96c0-26.14-16.87-41.88-38.51-41.88s-38.79,15.74-38.79,41.88,16.87,41.88,38.79,41.88,38.51-15.74,38.51-41.88Z"/></g><polygon class="cls-101" points="590.32 646.93 408.25 751.57 408.25 104.64 590.32 0 590.32 646.93"/><polygon class="cls-6" points="587.07 1800.06 406.95 1696.07 406.95 1048.46 587.07 1152.45 587.07 1800.06"/><ellipse class="cls-77" cx="767.28" cy="998.97" rx="766.79" ry="458.73" transform="translate(-6.27 4.85) rotate(-.36)"/><ellipse class="cls-77" cx="767.28" cy="988.37" rx="715.87" ry="424.47" transform="translate(-6.2 4.85) rotate(-.36)"/><g><path class="cls-114" d="M600.93,638.72l8.65-18.63c7.98,5.16,20.13,8.65,31.11,8.65,11.98,0,16.47-3.16,16.47-8.15,0-14.64-54.06,.33-54.06-35.43,0-16.97,15.3-28.94,41.42-28.94,12.31,0,25.95,2.83,34.43,7.82l-8.65,18.46c-8.82-4.99-17.63-6.65-25.78-6.65-11.64,0-16.64,3.66-16.64,8.32,0,15.3,54.06,.5,54.06,35.76,0,16.63-15.47,28.44-42.25,28.44-15.14,0-30.44-4.16-38.76-9.65Z"/><path class="cls-114" d="M691.24,602.29c0-26.95,20.79-46.08,49.24-46.08s49.07,19.13,49.07,46.08-20.63,46.08-49.07,46.08-49.24-19.13-49.24-46.08Zm72.03,0c0-15.47-9.81-24.79-22.79-24.79s-22.96,9.32-22.96,24.79,9.98,24.79,22.96,24.79,22.79-9.32,22.79-24.79Z"/><path class="cls-114" d="M958.05,595.8v51.23h-25.95v-47.24c0-14.47-6.49-21.13-16.97-21.13-11.64,0-19.79,7.48-19.79,23.45v44.91h-25.95v-47.24c0-14.47-6.15-21.13-16.97-21.13-11.48,0-19.63,7.48-19.63,23.45v44.91h-25.95v-89.49h24.79v10.31c6.65-7.65,16.63-11.64,28.11-11.64,12.47,0,23.12,4.82,29.44,14.64,7.15-9.15,18.8-14.64,32.27-14.64,21.29,0,36.6,12.31,36.6,39.59Z"/><path class="cls-114" d="M1069.49,609.61h-67.7c2.49,11.15,11.98,17.97,25.62,17.97,9.48,0,16.3-2.83,22.46-8.65l13.81,14.97c-8.32,9.48-20.79,14.47-36.93,14.47-30.94,0-51.07-19.46-51.07-46.08s20.46-46.08,47.74-46.08,46.58,17.63,46.58,46.41c0,2-.33,4.82-.5,6.99Zm-68.04-15.14h44.08c-1.83-11.31-10.31-18.63-21.96-18.63s-20.29,7.15-22.12,18.63Z"/></g><g><polygon class="cls-50" points="584.6 945.44 407.74 843.33 590.03 738.09 766.88 840.19 945.03 737.34 1125.99 841.82 947.85 944.68 1124.7 1046.78 942.42 1152.03 765.56 1049.92 587.42 1152.77 406.45 1048.29 584.6 945.44"/><polygon class="cls-86" points="584.6 944.63 407.74 842.52 590.03 737.28 766.88 839.39 945.03 736.54 1125.99 841.02 947.85 943.87 1124.7 1045.98 942.42 1151.22 765.56 1049.11 587.42 1151.96 406.45 1047.48 584.6 944.63"/><polygon class="cls-106" points="584.6 943.82 407.74 841.72 590.03 736.47 766.88 838.58 945.03 735.73 1125.99 840.21 947.85 943.06 1124.7 1045.17 942.42 1150.41 765.56 1048.31 587.42 1151.16 406.45 1046.68 584.6 943.82"/><polygon class="cls-110" points="584.6 943.02 407.74 840.91 590.03 735.67 766.88 837.77 945.03 734.92 1125.99 839.4 947.85 942.26 1124.7 1044.36 942.42 1149.61 765.56 1047.5 587.42 1150.35 406.45 1045.87 584.6 943.02"/><polygon class="cls-102" points="584.6 942.21 407.74 840.1 590.03 734.86 766.88 836.97 945.03 734.12 1125.99 838.6 947.85 941.45 1124.7 1043.56 942.42 1148.8 765.56 1046.69 587.42 1149.54 406.45 1045.06 584.6 942.21"/><polygon class="cls-10" points="584.6 941.4 407.74 839.3 590.03 734.05 766.88 836.16 945.03 733.31 1125.99 837.79 947.85 940.64 1124.7 1042.75 942.42 1147.99 765.56 1045.89 587.42 1148.74 406.45 1044.26 584.6 941.4"/><polygon class="cls-98" points="584.6 940.6 407.74 838.49 590.03 733.25 766.88 835.36 945.03 732.5 1125.99 836.99 947.85 939.84 1124.7 1041.94 942.42 1147.19 765.56 1045.08 587.42 1147.93 406.45 1043.45 584.6 940.6"/><polygon class="cls-2" points="584.6 939.79 407.74 837.69 590.03 732.44 766.88 834.55 945.03 731.7 1125.99 836.18 947.85 939.03 1124.7 1041.14 942.42 1146.38 765.56 1044.27 587.42 1147.13 406.45 1042.64 584.6 939.79"/><polygon class="cls-12" points="584.6 938.99 407.74 836.88 590.03 731.64 766.88 833.74 945.03 730.89 1125.99 835.37 947.85 938.22 1124.7 1040.33 942.42 1145.57 765.56 1043.47 587.42 1146.32 406.45 1041.84 584.6 938.99"/><polygon class="cls-89" points="584.6 938.18 407.74 836.07 590.03 730.83 766.88 832.94 945.03 730.08 1125.99 834.57 947.85 937.42 1124.7 1039.52 942.42 1144.77 765.56 1042.66 587.42 1145.51 406.45 1041.03 584.6 938.18"/><polygon class="cls-26" points="584.6 937.37 407.74 835.27 590.03 730.02 766.88 832.13 945.03 729.28 1125.99 833.76 947.85 936.61 1124.7 1038.72 942.42 1143.96 765.56 1041.85 587.42 1144.71 406.45 1040.22 584.6 937.37"/><polygon class="cls-49" points="584.6 936.57 407.74 834.46 590.03 729.22 766.88 831.32 945.03 728.47 1125.99 832.95 947.85 935.8 1124.7 1037.91 942.42 1143.15 765.56 1041.05 587.42 1143.9 406.45 1039.42 584.6 936.57"/><polygon class="cls-41" points="584.6 935.76 407.74 833.65 590.03 728.41 766.88 830.52 945.03 727.67 1125.99 832.15 947.85 935 1124.7 1037.11 942.42 1142.35 765.56 1040.24 587.42 1143.09 406.45 1038.61 584.6 935.76"/><polygon class="cls-21" points="584.6 934.95 407.74 832.85 590.03 727.6 766.88 829.71 945.03 726.86 1125.99 831.34 947.85 934.19 1124.7 1036.3 942.42 1141.54 765.56 1039.44 587.42 1142.29 406.45 1037.81 584.6 934.95"/><polygon class="cls-115" points="584.6 934.15 407.74 832.04 590.03 726.8 766.88 828.9 945.03 726.05 1125.99 830.53 947.85 933.39 1124.7 1035.49 942.42 1140.74 765.56 1038.63 587.42 1141.48 406.45 1037 584.6 934.15"/><polygon class="cls-24" points="584.6 933.34 407.74 831.23 590.03 725.99 766.88 828.1 945.03 725.25 1125.99 829.73 947.85 932.58 1124.7 1034.69 942.42 1139.93 765.56 1037.82 587.42 1140.67 406.45 1036.19 584.6 933.34"/><polygon class="cls-81" points="584.6 932.53 407.74 830.43 590.03 725.18 766.88 827.29 945.03 724.44 1125.99 828.92 947.85 931.77 1124.7 1033.88 942.42 1139.12 765.56 1037.02 587.42 1139.87 406.45 1035.39 584.6 932.53"/><polygon class="cls-20" points="584.6 931.73 407.74 829.62 590.03 724.38 766.88 826.48 945.03 723.63 1125.99 828.11 947.85 930.97 1124.7 1033.07 942.42 1138.32 765.56 1036.21 587.42 1139.06 406.45 1034.58 584.6 931.73"/><polygon class="cls-74" points="584.6 930.92 407.74 828.81 590.03 723.57 766.88 825.68 945.03 722.83 1125.99 827.31 947.85 930.16 1124.7 1032.27 942.42 1137.51 765.56 1035.4 587.42 1138.25 406.45 1033.77 584.6 930.92"/><polygon class="cls-37" points="584.6 930.12 407.74 828.01 590.03 722.77 766.88 824.87 945.03 722.02 1125.99 826.5 947.85 929.35 1124.7 1031.46 942.42 1136.7 765.56 1034.6 587.42 1137.45 406.45 1032.97 584.6 930.12"/><polygon class="cls-117" points="584.6 929.31 407.74 827.2 590.03 721.96 766.88 824.07 945.03 721.21 1125.99 825.7 947.85 928.55 1124.7 1030.65 942.42 1135.9 765.56 1033.79 587.42 1136.64 406.45 1032.16 584.6 929.31"/><polygon class="cls-14" points="584.6 928.5 407.74 826.4 590.03 721.15 766.88 823.26 945.03 720.41 1125.99 824.89 947.85 927.74 1124.7 1029.85 942.42 1135.09 765.56 1032.98 587.42 1135.84 406.45 1031.35 584.6 928.5"/><polygon class="cls-53" points="584.6 927.7 407.74 825.59 590.03 720.35 766.88 822.45 945.03 719.6 1125.99 824.08 947.85 926.93 1124.7 1029.04 942.42 1134.28 765.56 1032.18 587.42 1135.03 406.45 1030.55 584.6 927.7"/><polygon class="cls-60" points="584.6 926.89 407.74 824.78 590.03 719.54 766.88 821.65 945.03 718.79 1125.99 823.28 947.85 926.13 1124.7 1028.23 942.42 1133.48 765.56 1031.37 587.42 1134.22 406.45 1029.74 584.6 926.89"/><polygon class="cls-15" points="584.6 926.08 407.74 823.98 590.03 718.73 766.88 820.84 945.03 717.99 1125.99 822.47 947.85 925.32 1124.7 1027.43 942.42 1132.67 765.56 1030.56 587.42 1133.42 406.45 1028.93 584.6 926.08"/><polygon class="cls-75" points="584.6 925.28 407.74 823.17 590.03 717.93 766.88 820.03 945.03 717.18 1125.99 821.66 947.85 924.52 1124.7 1026.62 942.42 1131.87 765.56 1029.76 587.42 1132.61 406.45 1028.13 584.6 925.28"/><polygon class="cls-91" points="584.6 924.47 407.74 822.36 590.03 717.12 766.88 819.23 945.03 716.38 1125.99 820.86 947.85 923.71 1124.7 1025.82 942.42 1131.06 765.56 1028.95 587.42 1131.8 406.45 1027.32 584.6 924.47"/><polygon class="cls-65" points="584.6 923.66 407.74 821.56 590.03 716.31 766.88 818.42 945.03 715.57 1125.99 820.05 947.85 922.9 1124.7 1025.01 942.42 1130.25 765.56 1028.15 587.42 1131 406.45 1026.52 584.6 923.66"/><polygon class="cls-61" points="584.6 922.86 407.74 820.75 590.03 715.51 766.88 817.61 945.03 714.76 1125.99 819.24 947.85 922.1 1124.7 1024.2 942.42 1129.45 765.56 1027.34 587.42 1130.19 406.45 1025.71 584.6 922.86"/><polygon class="cls-47" points="584.6 922.05 407.74 819.94 590.03 714.7 766.88 816.81 945.03 713.96 1125.99 818.44 947.85 921.29 1124.7 1023.4 942.42 1128.64 765.56 1026.53 587.42 1129.38 406.45 1024.9 584.6 922.05"/><polygon class="cls-64" points="584.6 921.25 407.74 819.14 590.03 713.89 766.88 816 945.03 713.15 1125.99 817.63 947.85 920.48 1124.7 1022.59 942.42 1127.83 765.56 1025.73 587.42 1128.58 406.45 1024.1 584.6 921.25"/><polygon class="cls-67" points="584.6 920.44 407.74 818.33 590.03 713.09 766.88 815.2 945.03 712.34 1125.99 816.83 947.85 919.68 1124.7 1021.78 942.42 1127.03 765.56 1024.92 587.42 1127.77 406.45 1023.29 584.6 920.44"/><polygon class="cls-120" points="584.6 919.63 407.74 817.53 590.03 712.28 766.88 814.39 945.03 711.54 1125.99 816.02 947.85 918.87 1124.7 1020.98 942.42 1126.22 765.56 1024.11 587.42 1126.97 406.45 1022.48 584.6 919.63"/><polygon class="cls-93" points="584.6 918.83 407.74 816.72 590.03 711.48 766.88 813.58 945.03 710.73 1125.99 815.21 947.85 918.06 1124.7 1020.17 942.42 1125.41 765.56 1023.31 587.42 1126.16 406.45 1021.68 584.6 918.83"/><polygon class="cls-59" points="584.6 918.02 407.74 815.91 590.03 710.67 766.88 812.78 945.03 709.92 1125.99 814.41 947.85 917.26 1124.7 1019.36 942.42 1124.61 765.56 1022.5 587.42 1125.35 406.45 1020.87 584.6 918.02"/><polygon class="cls-112" points="584.6 917.21 407.74 815.11 590.03 709.86 766.88 811.97 945.03 709.12 1125.99 813.6 947.85 916.45 1124.7 1018.56 942.42 1123.8 765.56 1021.69 587.42 1124.55 406.45 1020.06 584.6 917.21"/><polygon class="cls-1" points="584.6 916.41 407.74 814.3 590.03 709.06 766.88 811.16 945.03 708.31 1125.99 812.79 947.85 915.64 1124.7 1017.75 942.42 1123 765.56 1020.89 587.42 1123.74 406.45 1019.26 584.6 916.41"/><polygon class="cls-48" points="584.6 915.6 407.74 813.49 590.03 708.25 766.88 810.36 945.03 707.51 1125.99 811.99 947.85 914.84 1124.7 1016.95 942.42 1122.19 765.56 1020.08 587.42 1122.93 406.45 1018.45 584.6 915.6"/><polygon class="cls-9" points="584.6 914.79 407.74 812.69 590.03 707.44 766.88 809.55 945.03 706.7 1125.99 811.18 947.85 914.03 1124.7 1016.14 942.42 1121.38 765.56 1019.28 587.42 1122.13 406.45 1017.65 584.6 914.79"/><polygon class="cls-111" points="584.6 913.99 407.74 811.88 590.03 706.64 766.88 808.74 945.03 705.89 1125.99 810.37 947.85 913.23 1124.7 1015.33 942.42 1120.58 765.56 1018.47 587.42 1121.32 406.45 1016.84 584.6 913.99"/><polygon class="cls-25" points="584.6 913.18 407.74 811.07 590.03 705.83 766.88 807.94 945.03 705.09 1125.99 809.57 947.85 912.42 1124.7 1014.53 942.42 1119.77 765.56 1017.66 587.42 1120.51 406.45 1016.03 584.6 913.18"/><polygon class="cls-44" points="584.6 912.37 407.74 810.27 590.03 705.02 766.88 807.13 945.03 704.28 1125.99 808.76 947.85 911.61 1124.7 1013.72 942.42 1118.96 765.56 1016.86 587.42 1119.71 406.45 1015.23 584.6 912.37"/><polygon class="cls-5" points="584.6 911.57 407.74 809.46 590.03 704.22 766.88 806.32 945.03 703.47 1125.99 807.95 947.85 910.81 1124.7 1012.91 942.42 1118.16 765.56 1016.05 587.42 1118.9 406.45 1014.42 584.6 911.57"/><polygon class="cls-55" points="584.6 910.76 407.74 808.65 590.03 703.41 766.88 805.52 945.03 702.67 1125.99 807.15 947.85 910 1124.7 1012.11 942.42 1117.35 765.56 1015.24 587.42 1118.09 406.45 1013.61 584.6 910.76"/><polygon class="cls-4" points="584.6 909.96 407.74 807.85 590.03 702.61 766.88 804.71 945.03 701.86 1125.99 806.34 947.85 909.19 1124.7 1011.3 942.42 1116.54 765.56 1014.44 587.42 1117.29 406.45 1012.81 584.6 909.96"/><polygon class="cls-28" points="584.6 909.15 407.74 807.04 590.03 701.8 766.88 803.91 945.03 701.05 1125.99 805.54 947.85 908.39 1124.7 1010.49 942.42 1115.74 765.56 1013.63 587.42 1116.48 406.45 1012 584.6 909.15"/><polygon class="cls-17" points="584.6 908.34 407.74 806.24 590.03 700.99 766.88 803.1 945.03 700.25 1125.99 804.73 947.85 907.58 1124.7 1009.69 942.42 1114.93 765.56 1012.82 587.42 1115.68 406.45 1011.19 584.6 908.34"/><polygon class="cls-72" points="584.6 907.54 407.74 805.43 590.03 700.19 766.88 802.29 945.03 699.44 1125.99 803.92 947.85 906.77 1124.7 1008.88 942.42 1114.12 765.56 1012.02 587.42 1114.87 406.45 1010.39 584.6 907.54"/><polygon class="cls-88" points="584.6 906.73 407.74 804.62 590.03 699.38 766.88 801.49 945.03 698.64 1125.99 803.12 947.85 905.97 1124.7 1008.07 942.42 1113.32 765.56 1011.21 587.42 1114.06 406.45 1009.58 584.6 906.73"/><polygon class="cls-116" points="584.6 905.92 407.74 803.82 590.03 698.57 766.88 800.68 945.03 697.83 1125.99 802.31 947.85 905.16 1124.7 1007.27 942.42 1112.51 765.56 1010.41 587.42 1113.26 406.45 1008.78 584.6 905.92"/><polygon class="cls-87" points="584.6 905.12 407.74 803.01 590.03 697.77 766.88 799.87 945.03 697.02 1125.99 801.5 947.85 904.36 1124.7 1006.46 942.42 1111.71 765.56 1009.6 587.42 1112.45 406.45 1007.97 584.6 905.12"/><polygon class="cls-83" points="584.6 904.31 407.74 802.2 590.03 696.96 766.88 799.07 945.03 696.22 1125.99 800.7 947.85 903.55 1124.7 1005.66 942.42 1110.9 765.56 1008.79 587.42 1111.64 406.45 1007.16 584.6 904.31"/><polygon class="cls-69" points="584.6 903.5 407.74 801.4 590.03 696.15 766.88 798.26 945.03 695.41 1125.99 799.89 947.85 902.74 1124.7 1004.85 942.42 1110.09 765.56 1007.99 587.42 1110.84 406.45 1006.36 584.6 903.5"/><polygon class="cls-31" points="584.6 902.7 407.74 800.59 590.03 695.35 766.88 797.45 945.03 694.6 1125.99 799.08 947.85 901.94 1124.7 1004.04 942.42 1109.29 765.56 1007.18 587.42 1110.03 406.45 1005.55 584.6 902.7"/><polygon class="cls-18" points="584.6 901.89 407.74 799.78 590.03 694.54 766.88 796.65 945.03 693.8 1125.99 798.28 947.85 901.13 1124.7 1003.24 942.42 1108.48 765.56 1006.37 587.42 1109.22 406.45 1004.74 584.6 901.89"/><polygon class="cls-23" points="584.6 901.09 407.74 798.98 590.03 693.73 766.88 795.84 945.03 692.99 1125.99 797.47 947.85 900.32 1124.7 1002.43 942.42 1107.67 765.56 1005.57 587.42 1108.42 406.45 1003.94 584.6 901.09"/><polygon class="cls-79" points="584.6 900.28 407.74 798.17 590.03 692.93 766.88 795.04 945.03 692.18 1125.99 796.67 947.85 899.52 1124.7 1001.62 942.42 1106.87 765.56 1004.76 587.42 1107.61 406.45 1003.13 584.6 900.28"/><polygon class="cls-79" points="584.6 899.47 407.74 797.37 590.03 692.12 766.88 794.23 945.03 691.38 1125.99 795.86 947.85 898.71 1124.7 1000.82 942.42 1106.06 765.56 1003.95 587.42 1106.81 406.45 1002.32 584.6 899.47"/><polygon class="cls-70" points="584.6 898.67 407.74 796.56 590.03 691.32 766.88 793.42 945.03 690.57 1125.99 795.05 947.85 897.9 1124.7 1000.01 942.42 1105.25 765.56 1003.15 587.42 1106 406.45 1001.52 584.6 898.67"/><polygon class="cls-58" points="584.6 897.86 407.74 795.75 590.03 690.51 766.88 792.62 945.03 689.76 1125.99 794.25 947.85 897.1 1124.7 999.2 942.42 1104.45 765.56 1002.34 587.42 1105.19 406.45 1000.71 584.6 897.86"/><polygon class="cls-94" points="584.6 897.05 407.74 794.95 590.03 689.7 766.88 791.81 945.03 688.96 1125.99 793.44 947.85 896.29 1124.7 998.4 942.42 1103.64 765.56 1001.53 587.42 1104.39 406.45 999.9 584.6 897.05"/><polygon class="cls-63" points="584.6 896.25 407.74 794.14 590.03 688.9 766.88 791 945.03 688.15 1125.99 792.63 947.85 895.48 1124.7 997.59 942.42 1102.84 765.56 1000.73 587.42 1103.58 406.45 999.1 584.6 896.25"/><polygon class="cls-78" points="584.6 895.44 407.74 793.33 590.03 688.09 766.88 790.2 945.03 687.35 1125.99 791.83 947.85 894.68 1124.7 996.79 942.42 1102.03 765.56 999.92 587.42 1102.77 406.45 998.29 584.6 895.44"/><polygon class="cls-45" points="584.6 894.63 407.74 792.53 590.03 687.28 766.88 789.39 945.03 686.54 1125.99 791.02 947.85 893.87 1124.7 995.98 942.42 1101.22 765.56 999.12 587.42 1101.97 406.45 997.49 584.6 894.63"/><polygon class="cls-62" points="584.6 893.83 407.74 791.72 590.03 686.48 766.88 788.58 945.03 685.73 1125.99 790.21 947.85 893.07 1124.7 995.17 942.42 1100.42 765.56 998.31 587.42 1101.16 406.45 996.68 584.6 893.83"/><polygon class="cls-39" points="584.6 893.02 407.74 790.91 590.03 685.67 766.88 787.78 945.03 684.93 1125.99 789.41 947.85 892.26 1124.7 994.37 942.42 1099.61 765.56 997.5 587.42 1100.35 406.45 995.87 584.6 893.02"/><polygon class="cls-27" points="584.6 892.21 407.74 790.11 590.03 684.86 766.88 786.97 945.03 684.12 1125.99 788.6 947.85 891.45 1124.7 993.56 942.42 1098.8 765.56 996.7 587.42 1099.55 406.45 995.07 584.6 892.21"/><polygon class="cls-29" points="584.6 891.41 407.74 789.3 590.03 684.06 766.88 786.17 945.03 683.31 1125.99 787.8 947.85 890.65 1124.7 992.75 942.42 1098 765.56 995.89 587.42 1098.74 406.45 994.26 584.6 891.41"/><polygon class="cls-90" points="584.6 890.6 407.74 788.5 590.03 683.25 766.88 785.36 945.03 682.51 1125.99 786.99 947.85 889.84 1124.7 991.95 942.42 1097.19 765.56 995.08 587.42 1097.93 406.45 993.45 584.6 890.6"/><polygon class="cls-7" points="584.6 889.8 407.74 787.69 590.03 682.45 766.88 784.55 945.03 681.7 1125.99 786.18 947.85 889.03 1124.7 991.14 942.42 1096.38 765.56 994.28 587.42 1097.13 406.45 992.65 584.6 889.8"/><polygon class="cls-66" points="584.6 888.99 407.74 786.88 590.03 681.64 766.88 783.75 945.03 680.89 1125.99 785.38 947.85 888.23 1124.7 990.33 942.42 1095.58 765.56 993.47 587.42 1096.32 406.45 991.84 584.6 888.99"/><polygon class="cls-92" points="584.6 888.18 407.74 786.08 590.03 680.83 766.88 782.94 945.03 680.09 1125.99 784.57 947.85 887.42 1124.7 989.53 942.42 1094.77 765.56 992.66 587.42 1095.52 406.45 991.03 584.6 888.18"/><polygon class="cls-73" points="584.6 887.38 407.74 785.27 590.03 680.03 766.88 782.13 945.03 679.28 1125.99 783.76 947.85 886.61 1124.7 988.72 942.42 1093.96 765.56 991.86 587.42 1094.71 406.45 990.23 584.6 887.38"/><polygon class="cls-32" points="584.6 886.57 407.74 784.46 590.03 679.22 766.88 781.33 945.03 678.48 1125.99 782.96 947.85 885.81 1124.7 987.92 942.42 1093.16 765.56 991.05 587.42 1093.9 406.45 989.42 584.6 886.57"/><polygon class="cls-52" points="584.6 885.76 407.74 783.66 590.03 678.41 766.88 780.52 945.03 677.67 1125.99 782.15 947.85 885 1124.7 987.11 942.42 1092.35 765.56 990.25 587.42 1093.1 406.45 988.62 584.6 885.76"/><polygon class="cls-36" points="584.6 884.96 407.74 782.85 590.03 677.61 766.88 779.71 945.03 676.86 1125.99 781.34 947.85 884.2 1124.7 986.3 942.42 1091.55 765.56 989.44 587.42 1092.29 406.45 987.81 584.6 884.96"/><polygon class="cls-71" points="584.6 884.15 407.74 782.04 590.03 676.8 766.88 778.91 945.03 676.06 1125.99 780.54 947.85 883.39 1124.7 985.5 942.42 1090.74 765.56 988.63 587.42 1091.48 406.45 987 584.6 884.15"/><polygon class="cls-107" points="584.6 883.34 407.74 781.24 590.03 675.99 766.88 778.1 945.03 675.25 1125.99 779.73 947.85 882.58 1124.7 984.69 942.42 1089.93 765.56 987.83 587.42 1090.68 406.45 986.2 584.6 883.34"/><polygon class="cls-82" points="584.6 882.54 407.74 780.43 590.03 675.19 766.88 777.29 945.03 674.44 1125.99 778.92 947.85 881.78 1124.7 983.88 942.42 1089.13 765.56 987.02 587.42 1089.87 406.45 985.39 584.6 882.54"/><polygon class="cls-22" points="584.6 881.73 407.74 779.62 590.03 674.38 766.88 776.49 945.03 673.64 1125.99 778.12 947.85 880.97 1124.7 983.08 942.42 1088.32 765.56 986.21 587.42 1089.06 406.45 984.58 584.6 881.73"/><polygon class="cls-80" points="584.6 880.93 407.74 778.82 590.03 673.57 766.88 775.68 945.03 672.83 1125.99 777.31 947.85 880.16 1124.7 982.27 942.42 1087.51 765.56 985.41 587.42 1088.26 406.45 983.78 584.6 880.93"/><polygon class="cls-8" points="584.6 880.12 407.74 778.01 590.03 672.77 766.88 774.88 945.03 672.02 1125.99 776.51 947.85 879.36 1124.7 981.46 942.42 1086.71 765.56 984.6 587.42 1087.45 406.45 982.97 584.6 880.12"/><polygon class="cls-46" points="584.6 879.31 407.74 777.21 590.03 671.96 766.88 774.07 945.03 671.22 1125.99 775.7 947.85 878.55 1124.7 980.66 942.42 1085.9 765.56 983.79 587.42 1086.65 406.45 982.16 584.6 879.31"/><polygon class="cls-34" points="584.6 878.51 407.74 776.4 590.03 671.16 766.88 773.26 945.03 670.41 1125.99 774.89 947.85 877.74 1124.7 979.85 942.42 1085.09 765.56 982.99 587.42 1085.84 406.45 981.36 584.6 878.51"/><polygon class="cls-108" points="584.6 877.7 407.74 775.59 590.03 670.35 766.88 772.46 945.03 669.6 1125.99 774.09 947.85 876.94 1124.7 979.04 942.42 1084.29 765.56 982.18 587.42 1085.03 406.45 980.55 584.6 877.7"/><polygon class="cls-56" points="584.6 876.89 407.74 774.79 590.03 669.54 766.88 771.65 945.03 668.8 1125.99 773.28 947.85 876.13 1124.7 978.24 942.42 1083.48 765.56 981.37 587.42 1084.23 406.45 979.74 584.6 876.89"/><polygon class="cls-13" points="584.6 876.09 407.74 773.98 590.03 668.74 766.88 770.84 945.03 667.99 1125.99 772.47 947.85 875.33 1124.7 977.43 942.42 1082.68 765.56 980.57 587.42 1083.42 406.45 978.94 584.6 876.09"/><polygon class="cls-16" points="584.6 875.28 407.74 773.17 590.03 667.93 766.88 770.04 945.03 667.19 1125.99 771.67 947.85 874.52 1124.7 976.63 942.42 1081.87 765.56 979.76 587.42 1082.61 406.45 978.13 584.6 875.28"/><polygon class="cls-96" points="584.6 874.47 407.74 772.37 590.03 667.12 766.88 769.23 945.03 666.38 1125.99 770.86 947.85 873.71 1124.7 975.82 942.42 1081.06 765.56 978.96 587.42 1081.81 406.45 977.33 584.6 874.47"/><polygon class="cls-33" points="584.6 873.67 407.74 771.56 590.03 666.32 766.88 768.42 945.03 665.57 1125.99 770.05 947.85 872.91 1124.7 975.01 942.42 1080.26 765.56 978.15 587.42 1081 406.45 976.52 584.6 873.67"/><polygon class="cls-19" points="584.6 872.86 407.74 770.75 590.03 665.51 766.88 767.62 945.03 664.77 1125.99 769.25 947.85 872.1 1124.7 974.21 942.42 1079.45 765.56 977.34 587.42 1080.19 406.45 975.71 584.6 872.86"/><polygon class="cls-54" points="584.6 872.05 407.74 769.95 590.03 664.7 766.88 766.81 945.03 663.96 1125.99 768.44 947.85 871.29 1124.7 973.4 942.42 1078.64 765.56 976.54 587.42 1079.39 406.45 974.91 584.6 872.05"/><polygon class="cls-119" points="584.6 871.25 407.74 769.14 590.03 663.9 766.88 766.01 945.03 663.15 1125.99 767.64 947.85 870.49 1124.7 972.59 942.42 1077.84 765.56 975.73 587.42 1078.58 406.45 974.1 584.6 871.25"/><polygon class="cls-51" points="584.6 870.44 407.74 768.34 590.03 663.09 766.88 765.2 945.03 662.35 1125.99 766.83 947.85 869.68 1124.7 971.79 942.42 1077.03 765.56 974.92 587.42 1077.78 406.45 973.29 584.6 870.44"/><polygon class="cls-109" points="584.6 869.64 407.74 767.53 590.03 662.29 766.88 764.39 945.03 661.54 1125.99 766.02 947.85 868.87 1124.7 970.98 942.42 1076.22 765.56 974.12 587.42 1076.97 406.45 972.49 584.6 869.64"/><polygon class="cls-38" points="584.6 868.83 407.74 766.72 590.03 661.48 766.88 763.59 945.03 660.73 1125.99 765.22 947.85 868.07 1124.7 970.17 942.42 1075.42 765.56 973.31 587.42 1076.16 406.45 971.68 584.6 868.83"/><polygon class="cls-118" points="584.6 868.02 407.74 765.92 590.03 660.67 766.88 762.78 945.03 659.93 1125.99 764.41 947.85 867.26 1124.7 969.37 942.42 1074.61 765.56 972.5 587.42 1075.36 406.45 970.87 584.6 868.02"/><polygon class="cls-97" points="584.6 867.22 407.74 765.11 590.03 659.87 766.88 761.97 945.03 659.12 1125.99 763.6 947.85 866.45 1124.7 968.56 942.42 1073.8 765.56 971.7 587.42 1074.55 406.45 970.07 584.6 867.22"/><polygon class="cls-11" points="584.6 866.41 407.74 764.3 590.03 659.06 766.88 761.17 945.03 658.32 1125.99 762.8 947.85 865.65 1124.7 967.76 942.42 1073 765.56 970.89 587.42 1073.74 406.45 969.26 584.6 866.41"/><polygon class="cls-43" points="584.6 865.6 407.74 763.5 590.03 658.25 766.88 760.36 945.03 657.51 1125.99 761.99 947.85 864.84 1124.7 966.95 942.42 1072.19 765.56 970.09 587.42 1072.94 406.45 968.46 584.6 865.6"/><polygon class="cls-3" points="584.6 864.8 407.74 762.69 590.03 657.45 766.88 759.55 945.03 656.7 1125.99 761.18 947.85 864.04 1124.7 966.14 942.42 1071.39 765.56 969.28 587.42 1072.13 406.45 967.65 584.6 864.8"/><polygon class="cls-57" points="584.6 863.99 407.74 761.88 590.03 656.64 766.88 758.75 945.03 655.9 1125.99 760.38 947.85 863.23 1124.7 965.34 942.42 1070.58 765.56 968.47 587.42 1071.32 406.45 966.84 584.6 863.99"/><polygon class="cls-84" points="584.6 863.18 407.74 761.08 590.03 655.83 766.88 757.94 945.03 655.09 1125.99 759.57 947.85 862.42 1124.7 964.53 942.42 1069.77 765.56 967.67 587.42 1070.52 406.45 966.04 584.6 863.18"/><polygon class="cls-103" points="584.6 862.38 407.74 760.27 590.03 655.03 766.88 757.13 945.03 654.28 1125.99 758.76 947.85 861.62 1124.7 963.72 942.42 1068.97 765.56 966.86 587.42 1069.71 406.45 965.23 584.6 862.38"/><polygon class="cls-68" points="584.6 861.57 407.74 759.46 590.03 654.22 766.88 756.33 945.03 653.48 1125.99 757.96 947.85 860.81 1124.7 962.92 942.42 1068.16 765.56 966.05 587.42 1068.9 406.45 964.42 584.6 861.57"/><polygon class="cls-85" points="584.6 860.77 407.74 758.66 590.03 653.42 766.88 755.52 945.03 652.67 1125.99 757.15 947.85 860 1124.7 962.11 942.42 1067.35 765.56 965.25 587.42 1068.1 406.45 963.62 584.6 860.77"/><polygon class="cls-95" points="584.6 859.96 407.74 757.85 590.03 652.61 766.88 754.72 945.03 651.86 1125.99 756.35 947.85 859.2 1124.7 961.3 942.42 1066.55 765.56 964.44 587.42 1067.29 406.45 962.81 584.6 859.96"/><polygon class="cls-100" points="584.6 859.15 407.74 757.05 590.03 651.8 766.88 753.91 945.03 651.06 1125.99 755.54 947.85 858.39 1124.7 960.5 942.42 1065.74 765.56 963.63 587.42 1066.49 406.45 962 584.6 859.15"/><polygon class="cls-35" points="584.6 858.35 407.74 756.24 590.03 651 766.88 753.1 945.03 650.25 1125.99 754.73 947.85 857.58 1124.7 959.69 942.42 1064.93 765.56 962.83 587.42 1065.68 406.45 961.2 584.6 858.35"/><polygon class="cls-105" points="584.6 857.54 407.74 755.43 590.03 650.19 766.88 752.3 945.03 649.44 1125.99 753.93 947.85 856.78 1124.7 958.88 942.42 1064.13 765.56 962.02 587.42 1064.87 406.45 960.39 584.6 857.54"/><polygon class="cls-40" points="584.6 856.73 407.74 754.63 590.03 649.38 766.88 751.49 945.03 648.64 1125.99 753.12 947.85 855.97 1124.7 958.08 942.42 1063.32 765.56 961.21 587.42 1064.07 406.45 959.58 584.6 856.73"/><polygon class="cls-104" points="584.6 855.93 407.74 753.82 590.03 648.58 766.88 750.68 945.03 647.83 1125.99 752.31 947.85 855.17 1124.7 957.27 942.42 1062.52 765.56 960.41 587.42 1063.26 406.45 958.78 584.6 855.93"/><polygon class="cls-76" points="584.6 855.12 407.74 753.01 590.03 647.77 766.88 749.88 945.03 647.03 1125.99 751.51 947.85 854.36 1124.7 956.47 942.42 1061.71 765.56 959.6 587.42 1062.45 406.45 957.97 584.6 855.12"/><polygon class="cls-42" points="584.6 854.31 407.74 752.21 590.03 646.96 766.88 749.07 945.03 646.22 1125.99 750.7 947.85 853.55 1124.7 955.66 942.42 1060.9 765.56 958.8 587.42 1061.65 406.45 957.17 584.6 854.31"/><polygon class="cls-113" points="584.6 853.51 407.74 751.4 590.03 646.16 766.88 748.26 945.03 645.41 1125.99 749.89 947.85 852.75 1124.7 954.85 942.42 1060.1 765.56 957.99 587.42 1060.84 406.45 956.36 584.6 853.51"/></g><polygon class="cls-99" points="1572.89 1213.43 1389.11 1319.53 939.92 1060.19 1123.7 954.09 1572.89 1213.43"/><g><path class="cls-50" d="M520.05,758.79l26.98-6.06c2.48,8.97,11.38,19.32,24.23,26.64,14.69,8.37,25.53,8.93,32.07,5.1,19.94-11.66-56.03-39.15-16.46-62.28,18.11-10.59,47.87-11.02,78.31,6.33,13.46,7.68,24.04,17.39,27.74,26.71l-26.37,6.58c-4.31-8.96-11.83-16.41-21.31-21.81-14.69-8.37-25.83-8.4-32.52-4.48-19.63,11.48,56.18,39.06,17.07,61.92-17.81,10.41-47.87,10.85-78.47-6.6-16.98-9.68-29.1-22.39-31.28-32.07Z"/><path class="cls-50" d="M665.19,792.15c32.11-18.77,79.88-18.08,113.23,.94,18.51,10.55,27.27,23.28,25.19,36.15l-30.52-.53c1.03-8.9-3.74-16.54-14.45-22.65-20.04-11.43-48.27-11.35-68.36,.39-20.09,11.74-19.86,28.04,.18,39.47,10.71,6.11,24,8.76,39.56,7.97l1.3,17.61c-22.43,1.45-44.58-3.44-63.24-14.09-33.2-18.93-35.01-46.49-2.9-65.27Z"/><path class="cls-50" d="M935.57,884.78l-106.53,62.28-24.79-14.13,43.68-25.53-48.65-27.74-43.68,25.53-24.79-14.13,106.53-62.28,24.79,14.13-42,24.56,48.65,27.74,42-24.56,24.79,14.13Z"/><path class="cls-50" d="M960.97,899.26l24.79,14.13-106.53,62.28-24.79-14.13,106.53-62.28Z"/><path class="cls-50" d="M1013.25,952.26l-34.27-19.54,20.09-11.74,93.33,53.21-20.09,11.74-34.27-19.54-86.44,50.54-24.79-14.13,86.44-50.54Z"/></g><rect class="cls-50" x="285.38" y="435.01" width="37.1" height="109.61"/><rect class="cls-50" x="285.38" y="435.01" width="37.1" height="109.61" transform="translate(793.74 185.89) rotate(90)"/><rect class="cls-50" x="181.21" y="352.51" width="19.15" height="56.57"/><rect class="cls-50" x="181.21" y="352.51" width="19.15" height="56.57" transform="translate(571.58 190.01) rotate(90)"/><rect class="cls-113" x="237.83" y="271.19" width="11.97" height="35.36"/><rect class="cls-113" x="237.83" y="271.19" width="11.97" height="35.36" transform="translate(532.68 45.05) rotate(90)"/></svg>