<svg width="297" height="340" viewBox="0 0 297 340" fill="none" xmlns="http://www.w3.org/2000/svg">
<path d="M145.641 242.906C206.963 242.52 256.494 213.492 256.272 178.068C256.049 142.645 206.157 114.241 144.835 114.627C83.5133 115.012 33.9822 144.041 34.2046 179.464C34.4271 214.888 84.3188 243.291 145.641 242.906Z" fill="#F7CAFC" fill-opacity="0.5"/>
<path d="M120.373 75.432H103.127L99.837 83.3952H91.0291L107.584 46.2288H116.075L132.683 83.3952H123.662L120.371 75.432H120.373ZM117.666 68.9004L111.777 54.67L105.887 68.9004H117.666Z" fill="white"/>
<path d="M164.787 44V83.3971H156.881V80.1049C154.812 82.6 151.786 83.8221 147.967 83.8221C139.901 83.8221 133.693 78.0876 133.693 69.1157C133.693 60.1438 139.901 54.4093 147.967 54.4093C151.469 54.4093 154.44 55.5237 156.511 57.8602V44.0019H164.789L164.787 44ZM156.668 69.1138C156.668 64.1764 153.483 61.2034 149.398 61.2034C145.313 61.2034 142.076 64.1764 142.076 69.1138C142.076 74.0512 145.26 77.0242 149.398 77.0242C153.536 77.0242 156.668 74.0512 156.668 69.1138Z" fill="white"/>
<path d="M201.506 44V83.3971H193.6V80.1049C191.531 82.6 188.505 83.8221 184.687 83.8221C176.621 83.8221 170.412 78.0876 170.412 69.1157C170.412 60.1438 176.621 54.4093 184.687 54.4093C188.188 54.4093 191.16 55.5237 193.23 57.8602V44.0019H201.508L201.506 44ZM193.387 69.1138C193.387 64.1764 190.203 61.2034 186.118 61.2034C182.033 61.2034 178.795 64.1764 178.795 69.1138C178.795 74.0512 181.98 77.0242 186.118 77.0242C190.255 77.0242 193.387 74.0512 193.387 69.1138Z" fill="white"/>
<path d="M111.894 122.23L77.894 142V19.7705L111.894 0V122.23Z" fill="url(#paint0_linear_208_247)"/>
<path d="M110.894 340L76.894 320.353V198L110.894 217.647V340Z" fill="url(#paint1_linear_208_247)"/>
<path d="M145.831 275.334C225.771 274.832 290.331 235.632 290.03 187.78C289.73 139.927 224.683 101.543 144.743 102.045C64.8037 102.548 0.243594 141.747 0.544082 189.6C0.84457 237.452 65.8919 275.837 145.831 275.334Z" stroke="#F7CAFC" stroke-opacity="0.2" stroke-miterlimit="10"/>
<path d="M145.791 266.861C220.422 266.392 280.697 230.117 280.419 185.838C280.141 141.56 219.415 106.045 144.784 106.514C70.1535 106.984 9.8786 143.259 10.1566 187.537C10.4347 231.816 71.1604 267.33 145.791 266.861Z" stroke="#F7CAFC" stroke-opacity="0.2" stroke-miterlimit="10"/>
<path d="M113.887 107.521L115.52 104.002C117.026 104.977 119.32 105.636 121.393 105.636C123.654 105.636 124.502 105.039 124.502 104.097C124.502 101.331 114.297 104.159 114.297 97.4046C114.297 94.1993 117.185 91.9384 122.116 91.9384C124.439 91.9384 127.014 92.4729 128.615 93.4154L126.982 96.9022C125.317 95.9597 123.654 95.6461 122.116 95.6461C119.918 95.6461 118.975 96.3374 118.975 97.2176C118.975 100.108 129.179 97.3121 129.179 103.972C129.179 107.113 126.259 109.344 121.204 109.344C118.346 109.344 115.458 108.558 113.887 107.521Z" fill="white"/>
<path d="M130.935 100.64C130.935 95.5498 134.859 91.9365 140.23 91.9365C145.6 91.9365 149.493 95.5498 149.493 100.64C149.493 105.731 145.598 109.344 140.23 109.344C134.861 109.344 130.935 105.731 130.935 100.64ZM144.532 100.64C144.532 97.7182 142.68 95.9578 140.23 95.9578C137.78 95.9578 135.896 97.7182 135.896 100.64C135.896 103.562 137.78 105.323 140.23 105.323C142.68 105.323 144.532 103.562 144.532 100.64Z" fill="white"/>
<path d="M181.3 99.4144V109.091H176.402V100.168C176.402 97.4349 175.177 96.1769 173.198 96.1769C171.001 96.1769 169.463 97.5898 169.463 100.606V109.089H164.564V100.166C164.564 97.433 163.403 96.175 161.361 96.175C159.194 96.175 157.655 97.5879 157.655 100.604V109.087H152.757V92.184H157.436V94.1313C158.691 92.6864 160.575 91.9327 162.742 91.9327C165.096 91.9327 167.107 92.8432 168.3 94.698C169.649 92.9697 171.849 91.9327 174.391 91.9327C178.41 91.9327 181.3 94.2579 181.3 99.4106V99.4144Z" fill="white"/>
<path d="M202.337 102.023H189.557C190.027 104.129 191.819 105.417 194.393 105.417C196.183 105.417 197.47 104.883 198.633 103.783L201.24 106.611C199.669 108.401 197.315 109.344 194.269 109.344C188.428 109.344 184.628 105.668 184.628 100.64C184.628 95.6122 188.491 91.9365 193.64 91.9365C198.79 91.9365 202.433 95.2665 202.433 100.703C202.433 101.08 202.371 101.613 202.339 102.023H202.337ZM189.493 99.1632H197.814C197.468 97.0269 195.868 95.6443 193.668 95.6443C191.469 95.6443 189.838 96.9948 189.493 99.1632Z" fill="white"/>
<path d="M110.804 178.577L77.4188 159.29L111.829 139.412L145.213 158.697L178.842 139.271L213.002 159.005L179.375 178.434L212.758 197.719L178.35 217.598L144.964 198.312L111.337 217.738L77.1753 198.004L110.804 178.577Z" fill="#DD2AD6"/>
<path d="M110.804 178.424L77.4188 159.137L111.829 139.259L145.213 158.546L178.842 139.12L213.002 158.854L179.375 178.281L212.758 197.567L178.35 217.445L144.964 198.159L111.337 217.585L77.1753 197.851L110.804 178.424Z" fill="#DD2BD6"/>
<path d="M110.804 178.271L77.4188 158.986L111.829 139.106L145.213 158.393L178.842 138.967L213.002 158.701L179.375 178.128L212.758 197.414L178.35 217.292L144.964 198.008L111.337 217.434L77.1753 197.7L110.804 178.271Z" fill="#DD2CD7"/>
<path d="M110.804 178.12L77.4188 158.833L111.829 138.955L145.213 158.24L178.842 138.814L213.002 158.548L179.375 177.977L212.758 197.261L178.35 217.141L144.964 197.855L111.337 217.281L77.1753 197.547L110.804 178.12Z" fill="#DE2DD7"/>
<path d="M110.804 177.967L77.4188 158.68L111.829 138.802L145.213 158.089L178.842 138.662L213.002 158.397L179.375 177.824L212.758 197.11L178.35 216.988L144.964 197.701L111.337 217.128L77.1753 197.394L110.804 177.967Z" fill="#DE2ED7"/>
<path d="M110.804 177.814L77.4188 158.529L111.829 138.649L145.213 157.936L178.842 138.51L213.002 158.244L179.375 177.671L212.758 196.957L178.35 216.835L144.964 197.55L111.337 216.977L77.1753 197.243L110.804 177.814Z" fill="#DE2FD7"/>
<path d="M110.804 177.663L77.4188 158.376L111.829 138.498L145.213 157.785L178.842 138.357L213.002 158.093L179.375 177.519L212.758 196.804L178.35 216.684L144.964 197.397L111.337 216.824L77.1753 197.09L110.804 177.663Z" fill="#DE30D8"/>
<path d="M110.804 177.51L77.4188 158.225L111.829 138.345L145.213 157.632L178.842 138.205L213.002 157.94L179.375 177.366L212.758 196.653L178.35 216.531L144.964 197.244L111.337 216.673L77.1753 196.937L110.804 177.51Z" fill="#DF31D8"/>
<path d="M110.804 177.359L77.4188 158.072L111.829 138.194L145.213 157.479L178.842 138.052L213.002 157.787L179.375 177.213L212.758 196.5L178.35 216.378L144.964 197.093L111.337 216.52L77.1753 196.785L110.804 177.359Z" fill="#DF32D8"/>
<path d="M110.804 177.206L77.4188 157.919L111.829 138.041L145.213 157.328L178.842 137.899L213.002 157.636L179.375 177.062L212.758 196.347L178.35 216.227L144.964 196.94L111.337 216.367L77.1753 196.632L110.804 177.206Z" fill="#DF33D8"/>
<path d="M110.804 177.053L77.4188 157.768L111.829 137.888L145.213 157.175L178.842 137.748L213.002 157.483L179.375 176.909L212.758 196.196L178.35 216.074L144.964 196.787L111.337 216.216L77.1753 196.479L110.804 177.053Z" fill="#DF34D9"/>
<path d="M110.804 176.902L77.4188 157.615L111.829 137.737L145.213 157.022L178.842 137.595L213.002 157.33L179.375 176.756L212.758 196.043L178.35 215.921L144.964 196.636L111.337 216.063L77.1753 196.328L110.804 176.902Z" fill="#E035D9"/>
<path d="M110.804 176.749L77.4188 157.462L111.829 137.584L145.213 156.871L178.842 137.444L213.002 157.179L179.375 176.605L212.758 195.892L178.35 215.77L144.964 196.483L111.337 215.91L77.1753 196.175L110.804 176.749Z" fill="#E036D9"/>
<path d="M110.804 176.596L77.4188 157.311L111.829 137.431L145.213 156.718L178.842 137.291L213.002 157.026L179.375 176.452L212.758 195.739L178.35 215.617L144.964 196.332L111.337 215.759L77.1753 196.024L110.804 176.596Z" fill="#E037D9"/>
<path d="M110.804 176.445L77.4188 157.158L111.829 137.28L145.213 156.565L178.842 137.138L213.002 156.873L179.375 176.301L212.758 195.586L178.35 215.466L144.964 196.179L111.337 215.606L77.1753 195.871L110.804 176.445Z" fill="#E038DA"/>
<path d="M110.804 176.292L77.4188 157.005L111.829 137.127L145.213 156.414L178.842 136.987L213.002 156.722L179.375 176.148L212.758 195.435L178.35 215.313L144.964 196.026L111.337 215.453L77.1753 195.718L110.804 176.292Z" fill="#E139DA"/>
<path d="M110.804 176.139L77.4188 156.854L111.829 136.974L145.213 156.261L178.842 136.834L213.002 156.569L179.375 175.995L212.758 195.282L178.35 215.16L144.964 195.875L111.337 215.302L77.1753 195.567L110.804 176.139Z" fill="#E13ADA"/>
<path d="M110.804 175.988L77.4188 156.701L111.829 136.823L145.213 156.108L178.842 136.681L213.002 156.416L179.375 175.844L212.758 195.129L178.35 215.009L144.964 195.722L111.337 215.149L77.1753 195.414L110.804 175.988Z" fill="#E13BDA"/>
<path d="M110.804 175.835L77.4188 156.548L111.829 136.67L145.213 155.957L178.842 136.53L213.002 156.264L179.375 175.691L212.758 194.978L178.35 214.856L144.964 195.569L111.337 214.996L77.1753 195.261L110.804 175.835Z" fill="#E13CDB"/>
<path d="M110.804 175.684L77.4188 156.397L111.829 136.519L145.213 155.804L178.842 136.377L213.002 156.112L179.375 175.538L212.758 194.825L178.35 214.703L144.964 195.418L111.337 214.845L77.1753 195.11L110.804 175.684Z" fill="#E23DDB"/>
<path d="M110.804 175.531L77.4188 156.244L111.829 136.366L145.213 155.653L178.842 136.224L213.002 155.96L179.375 175.387L212.758 194.672L178.35 214.552L144.964 195.265L111.337 214.692L77.1753 194.957L110.804 175.531Z" fill="#E23EDB"/>
<path d="M110.804 175.378L77.4188 156.093L111.829 136.213L145.213 155.5L178.842 136.073L213.002 155.807L179.375 175.234L212.758 194.521L178.35 214.399L144.964 195.112L111.337 214.54L77.1753 194.804L110.804 175.378Z" fill="#E23FDC"/>
<path d="M110.804 175.226L77.4188 155.94L111.829 136.062L145.213 155.347L178.842 135.92L213.002 155.654L179.375 175.081L212.758 194.368L178.35 214.246L144.964 194.961L111.337 214.387L77.1753 194.653L110.804 175.226Z" fill="#E240DC"/>
<path d="M110.804 175.073L77.4188 155.787L111.829 135.909L145.213 155.195L178.842 135.767L213.002 155.503L179.375 174.93L212.758 194.215L178.35 214.095L144.964 194.808L111.337 214.234L77.1753 194.5L110.804 175.073Z" fill="#E241DC"/>
<path d="M110.804 174.92L77.4188 155.636L111.829 135.756L145.213 155.042L178.842 135.616L213.002 155.35L179.375 174.777L212.758 194.064L178.35 213.942L144.964 194.655L111.337 214.083L77.1753 194.347L110.804 174.92Z" fill="#E342DC"/>
<path d="M110.804 174.769L77.4188 155.482L111.829 135.604L145.213 154.889L178.842 135.463L213.002 155.197L179.375 174.626L212.758 193.911L178.35 213.791L144.964 194.504L111.337 213.93L77.1753 194.196L110.804 174.769Z" fill="#E343DD"/>
<path d="M110.804 174.616L77.4188 155.329L111.829 135.451L145.213 154.738L178.842 135.312L213.002 155.046L179.375 174.473L212.758 193.76L178.35 213.638L144.964 194.351L111.337 213.777L77.1753 194.043L110.804 174.616Z" fill="#E344DD"/>
<path d="M110.804 174.463L77.4188 155.178L111.829 135.299L145.213 154.585L178.842 135.159L213.002 154.893L179.375 174.32L212.758 193.607L178.35 213.485L144.964 194.2L111.337 213.626L77.1753 193.892L110.804 174.463Z" fill="#E345DD"/>
<path d="M110.804 174.312L77.4188 155.025L111.829 135.147L145.213 154.432L178.842 135.006L213.002 154.74L179.375 174.169L212.758 193.454L178.35 213.333L144.964 194.047L111.337 213.473L77.1753 193.739L110.804 174.312Z" fill="#E446DD"/>
<path d="M110.804 174.159L77.4188 154.872L111.829 134.994L145.213 154.281L178.842 134.855L213.002 154.589L179.375 174.016L212.758 193.303L178.35 213.181L144.964 193.894L111.337 213.32L77.1753 193.586L110.804 174.159Z" fill="#E447DE"/>
<path d="M110.804 174.008L77.4188 154.721L111.829 134.841L145.213 154.128L178.842 134.702L213.002 154.436L179.375 173.863L212.758 193.149L178.35 213.027L144.964 193.743L111.337 213.169L77.1753 193.435L110.804 174.008Z" fill="#E448DE"/>
<path d="M110.804 173.855L77.4188 154.568L111.829 134.69L145.213 153.977L178.842 134.549L213.002 154.285L179.375 173.712L212.758 192.996L178.35 212.876L144.964 193.59L111.337 213.016L77.1753 193.282L110.804 173.855Z" fill="#E449DE"/>
<path d="M110.804 173.702L77.4188 154.417L111.829 134.537L145.213 153.824L178.842 134.398L213.002 154.132L179.375 173.559L212.758 192.845L178.35 212.723L144.964 193.437L111.337 212.865L77.1753 193.129L110.804 173.702Z" fill="#E54ADE"/>
<path d="M110.804 173.551L77.4188 154.264L111.829 134.386L145.213 153.671L178.842 134.245L213.002 153.979L179.375 173.406L212.758 192.692L178.35 212.57L144.964 193.285L111.337 212.712L77.1753 192.978L110.804 173.551Z" fill="#E54BDF"/>
<path d="M110.804 173.398L77.4188 154.111L111.829 134.233L145.213 153.52L178.842 134.092L213.002 153.828L179.375 173.254L212.758 192.539L178.35 212.419L144.964 193.132L111.337 212.559L77.1753 192.825L110.804 173.398Z" fill="#E54CDF"/>
<path d="M110.804 173.245L77.4188 153.96L111.829 134.08L145.213 153.367L178.842 133.94L213.002 153.675L179.375 173.101L212.758 192.388L178.35 212.266L144.964 192.979L111.337 212.408L77.1753 192.672L110.804 173.245Z" fill="#E54DDF"/>
<path d="M110.804 173.094L77.4188 153.807L111.829 133.929L145.213 153.214L178.842 133.787L213.002 153.522L179.375 172.949L212.758 192.235L178.35 212.115L144.964 192.828L111.337 212.255L77.1753 192.521L110.804 173.094Z" fill="#E64EDF"/>
<path d="M110.804 172.941L77.4188 153.654L111.829 133.776L145.213 153.063L178.842 133.636L213.002 153.371L179.375 172.797L212.758 192.084L178.35 211.962L144.964 192.675L111.337 212.102L77.1753 192.368L110.804 172.941Z" fill="#E64FE0"/>
<path d="M110.804 172.788L77.4188 153.503L111.829 133.623L145.213 152.91L178.842 133.483L213.002 153.218L179.375 172.644L212.758 191.931L178.35 211.809L144.964 192.524L111.337 211.951L77.1753 192.216L110.804 172.788Z" fill="#E650E0"/>
<path d="M110.804 172.637L77.4188 153.35L111.829 133.472L145.213 152.757L178.842 133.33L213.002 153.065L179.375 172.493L212.758 191.778L178.35 211.658L144.964 192.371L111.337 211.798L77.1753 192.063L110.804 172.637Z" fill="#E651E0"/>
<path d="M110.804 172.484L77.4188 153.197L111.829 133.319L145.213 152.606L178.842 133.179L213.002 152.914L179.375 172.34L212.758 191.627L178.35 211.505L144.964 192.218L111.337 211.645L77.1753 191.91L110.804 172.484Z" fill="#E652E1"/>
<path d="M110.804 172.331L77.4188 153.046L111.829 133.166L145.213 152.453L178.842 133.026L213.002 152.761L179.375 172.187L212.758 191.474L178.35 211.352L144.964 192.067L111.337 211.494L77.1753 191.759L110.804 172.331Z" fill="#E753E1"/>
<path d="M110.804 172.18L77.4188 152.893L111.829 133.015L145.213 152.3L178.842 132.873L213.002 152.608L179.375 172.036L212.758 191.321L178.35 211.201L144.964 191.914L111.337 211.341L77.1753 191.606L110.804 172.18Z" fill="#E754E1"/>
<path d="M110.804 172.027L77.4188 152.74L111.829 132.862L145.213 152.149L178.842 132.722L213.002 152.457L179.375 171.883L212.758 191.17L178.35 211.048L144.964 191.761L111.337 211.188L77.1753 191.453L110.804 172.027Z" fill="#E755E1"/>
<path d="M110.804 171.876L77.4188 152.589L111.829 132.711L145.213 151.996L178.842 132.569L213.002 152.304L179.375 171.73L212.758 191.017L178.35 210.895L144.964 191.61L111.337 211.037L77.1753 191.302L110.804 171.876Z" fill="#E756E2"/>
<path d="M110.804 171.723L77.4188 152.436L111.829 132.558L145.213 151.845L178.842 132.416L213.002 152.152L179.375 171.579L212.758 190.864L178.35 210.744L144.964 191.457L111.337 210.884L77.1753 191.149L110.804 171.723Z" fill="#E857E2"/>
<path d="M110.804 171.57L77.4188 152.285L111.829 132.405L145.213 151.692L178.842 132.265L213.002 152L179.375 171.426L212.758 190.713L178.35 210.591L144.964 191.304L111.337 210.733L77.1753 190.996L110.804 171.57Z" fill="#E858E2"/>
<path d="M110.804 171.419L77.4188 152.132L111.829 132.254L145.213 151.539L178.842 132.112L213.002 151.847L179.375 171.273L212.758 190.56L178.35 210.438L144.964 191.153L111.337 210.58L77.1753 190.845L110.804 171.419Z" fill="#E859E2"/>
<path d="M110.804 171.266L77.4188 151.979L111.829 132.101L145.213 151.388L178.842 131.961L213.002 151.695L179.375 171.122L212.758 190.407L178.35 210.287L144.964 191L111.337 210.427L77.1753 190.692L110.804 171.266Z" fill="#E85AE3"/>
<path d="M110.804 171.113L77.4188 151.828L111.829 131.948L145.213 151.235L178.842 131.808L213.002 151.542L179.375 170.969L212.758 190.256L178.35 210.134L144.964 190.849L111.337 210.275L77.1753 190.541L110.804 171.113Z" fill="#E95BE3"/>
<path d="M110.804 170.961L77.4188 151.675L111.829 131.797L145.213 151.082L178.842 131.655L213.002 151.389L179.375 170.818L212.758 190.103L178.35 209.983L144.964 190.696L111.337 210.122L77.1753 190.388L110.804 170.961Z" fill="#E95CE3"/>
<path d="M110.804 170.808L77.4188 151.522L111.829 131.644L145.213 150.93L178.842 131.504L213.002 151.238L179.375 170.665L212.758 189.952L178.35 209.83L144.964 190.543L111.337 209.969L77.1753 190.235L110.804 170.808Z" fill="#E95DE3"/>
<path d="M110.804 170.655L77.4188 151.371L111.829 131.491L145.213 150.777L178.842 131.351L213.002 151.085L179.375 170.512L212.758 189.799L178.35 209.677L144.964 190.392L111.337 209.818L77.1753 190.084L110.804 170.655Z" fill="#E95EE4"/>
<path d="M110.804 170.504L77.4188 151.218L111.829 131.34L145.213 150.624L178.842 131.198L213.002 150.932L179.375 170.361L212.758 189.646L178.35 209.526L144.964 190.239L111.337 209.665L77.1753 189.931L110.804 170.504Z" fill="#EA5FE4"/>
<path d="M110.804 170.351L77.4188 151.065L111.829 131.187L145.213 150.473L178.842 131.047L213.002 150.781L179.375 170.208L212.758 189.495L178.35 209.373L144.964 190.086L111.337 209.512L77.1753 189.778L110.804 170.351Z" fill="#EA60E4"/>
<path d="M110.804 170.2L77.4188 150.913L111.829 131.034L145.213 150.32L178.842 130.894L213.002 150.628L179.375 170.055L212.758 189.342L178.35 209.22L144.964 189.935L111.337 209.361L77.1753 189.627L110.804 170.2Z" fill="#EA61E4"/>
<path d="M110.804 170.047L77.4188 150.76L111.829 130.882L145.213 150.169L178.842 130.741L213.002 150.477L179.375 169.904L212.758 189.189L178.35 209.069L144.964 189.782L111.337 209.208L77.1753 189.474L110.804 170.047Z" fill="#EA62E5"/>
<path d="M110.804 169.894L77.4188 150.609L111.829 130.729L145.213 150.016L178.842 130.59L213.002 150.324L179.375 169.751L212.758 189.037L178.35 208.916L144.964 189.629L111.337 209.057L77.1753 189.321L110.804 169.894Z" fill="#EA62E5"/>
<path d="M110.804 169.743L77.4188 150.456L111.829 130.578L145.213 149.863L178.842 130.437L213.002 150.171L179.375 169.598L212.758 188.885L178.35 208.763L144.964 189.478L111.337 208.904L77.1753 189.17L110.804 169.743Z" fill="#EB63E5"/>
<path d="M110.804 169.59L77.4188 150.303L111.829 130.425L145.213 149.712L178.842 130.284L213.002 150.02L179.375 169.447L212.758 188.732L178.35 208.611L144.964 189.325L111.337 208.751L77.1753 189.017L110.804 169.59Z" fill="#EB64E6"/>
<path d="M110.804 169.437L77.4188 150.152L111.829 130.272L145.213 149.559L178.842 130.133L213.002 149.867L179.375 169.294L212.758 188.58L178.35 208.458L144.964 189.172L111.337 208.6L77.1753 188.864L110.804 169.437Z" fill="#EB65E6"/>
<path d="M110.804 169.286L77.4188 149.999L111.829 130.121L145.213 149.406L178.842 129.98L213.002 149.714L179.375 169.141L212.758 188.427L178.35 208.307L144.964 189.02L111.337 208.447L77.1753 188.713L110.804 169.286Z" fill="#EB66E6"/>
<path d="M110.804 169.133L77.4188 149.846L111.829 129.968L145.213 149.255L178.842 129.828L213.002 149.563L179.375 168.99L212.758 188.276L178.35 208.154L144.964 188.868L111.337 208.294L77.1753 188.56L110.804 169.133Z" fill="#EC67E6"/>
<path d="M110.804 168.98L77.4188 149.695L111.829 129.815L145.213 149.102L178.842 129.675L213.002 149.41L179.375 168.837L212.758 188.123L178.35 208.001L144.964 188.716L111.337 208.143L77.1753 188.409L110.804 168.98Z" fill="#EC68E7"/>
<path d="M110.804 168.829L77.4188 149.542L111.829 129.664L145.213 148.949L178.842 129.522L213.002 149.257L179.375 168.685L212.758 187.97L178.35 207.85L144.964 188.563L111.337 207.99L77.1753 188.256L110.804 168.829Z" fill="#EC69E7"/>
<path d="M110.804 168.676L77.4188 149.389L111.829 129.511L145.213 148.798L178.842 129.371L213.002 149.106L179.375 168.532L212.758 187.819L178.35 207.697L144.964 188.41L111.337 207.837L77.1753 188.103L110.804 168.676Z" fill="#EC6AE7"/>
<path d="M110.804 168.523L77.4188 149.238L111.829 129.358L145.213 148.645L178.842 129.218L213.002 148.953L179.375 168.379L212.758 187.666L178.35 207.544L144.964 188.259L111.337 207.686L77.1753 187.951L110.804 168.523Z" fill="#ED6BE7"/>
<path d="M110.804 168.372L77.4188 149.085L111.829 129.207L145.213 148.494L178.842 129.065L213.002 148.802L179.375 168.228L212.758 187.513L178.35 207.393L144.964 188.106L111.337 207.533L77.1753 187.798L110.804 168.372Z" fill="#ED6CE8"/>
<path d="M110.804 168.219L77.4188 148.934L111.829 129.054L145.213 148.341L178.842 128.914L213.002 148.649L179.375 168.075L212.758 187.362L178.35 207.24L144.964 187.953L111.337 207.38L77.1753 187.645L110.804 168.219Z" fill="#ED6DE8"/>
<path d="M110.804 168.068L77.4188 148.781L111.829 128.903L145.213 148.188L178.842 128.761L213.002 148.496L179.375 167.922L212.758 187.209L178.35 207.087L144.964 187.802L111.337 207.229L77.1753 187.494L110.804 168.068Z" fill="#ED6EE8"/>
<path d="M110.804 167.915L77.4188 148.628L111.829 128.75L145.213 148.037L178.842 128.608L213.002 148.345L179.375 167.771L212.758 187.056L178.35 206.936L144.964 187.649L111.337 207.076L77.1753 187.341L110.804 167.915Z" fill="#EE6FE8"/>
<path d="M110.804 167.762L77.4188 148.477L111.829 128.597L145.213 147.884L178.842 128.457L213.002 148.192L179.375 167.618L212.758 186.905L178.35 206.783L144.964 187.496L111.337 206.925L77.1753 187.188L110.804 167.762Z" fill="#EE70E9"/>
<path d="M110.804 167.611L77.4188 148.324L111.829 128.446L145.213 147.731L178.842 128.304L213.002 148.039L179.375 167.465L212.758 186.752L178.35 206.63L144.964 187.345L111.337 206.772L77.1753 187.037L110.804 167.611Z" fill="#EE71E9"/>
<path d="M110.804 167.458L77.4188 148.171L111.829 128.293L145.213 147.58L178.842 128.153L213.002 147.888L179.375 167.314L212.758 186.601L178.35 206.479L144.964 187.192L111.337 206.619L77.1753 186.884L110.804 167.458Z" fill="#EE72E9"/>
<path d="M110.804 167.305L77.4188 148.02L111.829 128.14L145.213 147.427L178.842 128L213.002 147.735L179.375 167.161L212.758 186.448L178.35 206.326L144.964 187.041L111.337 206.468L77.1753 186.733L110.804 167.305Z" fill="#EF73E9"/>
<path d="M110.804 167.154L77.4188 147.867L111.829 127.989L145.213 147.274L178.842 127.847L213.002 147.582L179.375 167.01L212.758 186.295L178.35 206.175L144.964 186.888L111.337 206.315L77.1753 186.58L110.804 167.154Z" fill="#EF74EA"/>
<path d="M110.804 167.001L77.4188 147.714L111.829 127.836L145.213 147.123L178.842 127.696L213.002 147.43L179.375 166.857L212.758 186.144L178.35 206.022L144.964 186.735L111.337 206.162L77.1753 186.427L110.804 167.001Z" fill="#EF75EA"/>
<path d="M110.804 166.848L77.4188 147.563L111.829 127.683L145.213 146.97L178.842 127.543L213.002 147.277L179.375 166.704L212.758 185.991L178.35 205.869L144.964 186.584L111.337 206.01L77.1753 186.276L110.804 166.848Z" fill="#EF76EA"/>
<path d="M110.804 166.696L77.4188 147.41L111.829 127.532L145.213 146.817L178.842 127.39L213.002 147.124L179.375 166.553L212.758 185.838L178.35 205.718L144.964 186.431L111.337 205.858L77.1753 186.123L110.804 166.696Z" fill="#EF77EB"/>
<path d="M110.804 166.543L77.4188 147.257L111.829 127.379L145.213 146.665L178.842 127.239L213.002 146.973L179.375 166.4L212.758 185.687L178.35 205.565L144.964 186.278L111.337 205.705L77.1753 185.97L110.804 166.543Z" fill="#F078EB"/>
<path d="M110.804 166.392L77.4188 147.106L111.829 127.226L145.213 146.513L178.842 127.086L213.002 146.82L179.375 166.247L212.758 185.534L178.35 205.412L144.964 186.127L111.337 205.553L77.1753 185.819L110.804 166.392Z" fill="#F079EB"/>
<path d="M110.804 166.239L77.4188 146.953L111.829 127.075L145.213 146.361L178.842 126.933L213.002 146.669L179.375 166.096L212.758 185.381L178.35 205.261L144.964 185.974L111.337 205.4L77.1753 185.666L110.804 166.239Z" fill="#F07AEB"/>
<path d="M110.804 166.086L77.4188 146.801L111.829 126.922L145.213 146.208L178.842 126.782L213.002 146.516L179.375 165.943L212.758 185.23L178.35 205.108L144.964 185.821L111.337 205.249L77.1753 185.513L110.804 166.086Z" fill="#F07BEC"/>
<path d="M110.804 165.935L77.4188 146.648L111.829 126.77L145.213 146.055L178.842 126.629L213.002 146.363L179.375 165.79L212.758 185.077L178.35 204.955L144.964 185.67L111.337 205.096L77.1753 185.362L110.804 165.935Z" fill="#F17CEC"/>
<path d="M110.804 165.782L77.4188 146.496L111.829 126.617L145.213 145.904L178.842 126.476L213.002 146.212L179.375 165.639L212.758 184.924L178.35 204.804L144.964 185.517L111.337 204.943L77.1753 185.209L110.804 165.782Z" fill="#F17DEC"/>
<path d="M110.804 165.629L77.4188 146.344L111.829 126.464L145.213 145.751L178.842 126.325L213.002 146.059L179.375 165.486L212.758 184.773L178.35 204.651L144.964 185.364L111.337 204.792L77.1753 185.056L110.804 165.629Z" fill="#F17EEC"/>
<path d="M110.804 165.478L77.4188 146.191L111.829 126.313L145.213 145.598L178.842 126.172L213.002 145.906L179.375 165.335L212.758 184.62L178.35 204.499L144.964 185.213L111.337 204.639L77.1753 184.905L110.804 165.478Z" fill="#F17FED"/>
<path d="M110.804 165.325L77.4188 146.038L111.829 126.16L145.213 145.447L178.842 126.021L213.002 145.755L179.375 165.182L212.758 184.468L178.35 204.346L144.964 185.06L111.337 204.486L77.1753 184.752L110.804 165.325Z" fill="#F280ED"/>
<path d="M110.804 165.172L77.4188 145.887L111.829 126.007L145.213 145.294L178.842 125.868L213.002 145.602L179.375 165.029L212.758 184.315L178.35 204.193L144.964 184.909L111.337 204.335L77.1753 184.601L110.804 165.172Z" fill="#F281ED"/>
<path d="M110.804 165.021L77.4188 145.734L111.829 125.856L145.213 145.141L178.842 125.715L213.002 145.449L179.375 164.878L212.758 184.162L178.35 204.042L144.964 184.756L111.337 204.182L77.1753 184.448L110.804 165.021Z" fill="#F282ED"/>
<path d="M110.804 164.868L77.4188 145.581L111.829 125.703L145.213 144.99L178.842 125.564L213.002 145.298L179.375 164.725L212.758 184.011L178.35 203.889L144.964 184.603L111.337 204.029L77.1753 184.295L110.804 164.868Z" fill="#F283EE"/>
<path d="M110.804 164.715L77.4188 145.43L111.829 125.55L145.213 144.837L178.842 125.411L213.002 145.145L179.375 164.572L212.758 183.858L178.35 203.736L144.964 184.451L111.337 203.878L77.1753 184.144L110.804 164.715Z" fill="#F384EE"/>
<path d="M110.804 164.564L77.4188 145.277L111.829 125.399L145.213 144.686L178.842 125.258L213.002 144.994L179.375 164.42L212.758 183.705L178.35 203.585L144.964 184.298L111.337 203.725L77.1753 183.991L110.804 164.564Z" fill="#F385EE"/>
<path d="M110.804 164.411L77.4188 145.126L111.829 125.246L145.213 144.533L178.842 125.106L213.002 144.841L179.375 164.267L212.758 183.554L178.35 203.432L144.964 184.145L111.337 203.574L77.1753 183.838L110.804 164.411Z" fill="#F386EE"/>
<path d="M110.804 164.26L77.4188 144.973L111.829 125.095L145.213 144.38L178.842 124.953L213.002 144.688L179.375 164.114L212.758 183.401L178.35 203.279L144.964 183.994L111.337 203.421L77.1753 183.686L110.804 164.26Z" fill="#F387EF"/>
<path d="M110.804 164.107L77.4188 144.82L111.829 124.942L145.213 144.229L178.842 124.8L213.002 144.537L179.375 163.963L212.758 183.248L178.35 203.128L144.964 183.841L111.337 203.268L77.1753 183.533L110.804 164.107Z" fill="#F388EF"/>
<path d="M110.804 163.954L77.4188 144.669L111.829 124.789L145.213 144.076L178.842 124.649L213.002 144.384L179.375 163.81L212.758 183.097L178.35 202.975L144.964 183.688L111.337 203.117L77.1753 183.381L110.804 163.954Z" fill="#F489EF"/>
<path d="M110.804 163.803L77.4188 144.516L111.829 124.638L145.213 143.923L178.842 124.496L213.002 144.231L179.375 163.657L212.758 182.944L178.35 202.822L144.964 183.537L111.337 202.964L77.1753 183.229L110.804 163.803Z" fill="#F48AF0"/>
<path d="M110.804 163.65L77.4188 144.363L111.829 124.485L145.213 143.772L178.842 124.345L213.002 144.08L179.375 163.506L212.758 182.793L178.35 202.671L144.964 183.384L111.337 202.811L77.1753 183.076L110.804 163.65Z" fill="#F48BF0"/>
<path d="M110.804 163.497L77.4188 144.212L111.829 124.332L145.213 143.619L178.842 124.192L213.002 143.927L179.375 163.353L212.758 182.64L178.35 202.518L144.964 183.233L111.337 202.66L77.1753 182.925L110.804 163.497Z" fill="#F48CF0"/>
<path d="M110.804 163.346L77.4188 144.059L111.829 124.181L145.213 143.466L178.842 124.039L213.002 143.774L179.375 163.202L212.758 182.487L178.35 202.367L144.964 183.08L111.337 202.507L77.1753 182.772L110.804 163.346Z" fill="#F58DF0"/>
<path d="M110.804 163.193L77.4188 143.906L111.829 124.028L145.213 143.315L178.842 123.888L213.002 143.623L179.375 163.049L212.758 182.336L178.35 202.214L144.964 182.927L111.337 202.354L77.1753 182.619L110.804 163.193Z" fill="#F58EF1"/>
<path d="M110.804 163.04L77.4188 143.755L111.829 123.875L145.213 143.162L178.842 123.735L213.002 143.47L179.375 162.896L212.758 182.183L178.35 202.061L144.964 182.776L111.337 202.203L77.1753 182.468L110.804 163.04Z" fill="#F58FF1"/>
<path d="M110.804 162.889L77.4188 143.602L111.829 123.724L145.213 143.009L178.842 123.582L213.002 143.317L179.375 162.745L212.758 182.03L178.35 201.91L144.964 182.623L111.337 202.05L77.1753 182.315L110.804 162.889Z" fill="#F590F1"/>
<path d="M110.804 162.736L77.4188 143.449L111.829 123.571L145.213 142.858L178.842 123.431L213.002 143.165L179.375 162.592L212.758 181.879L178.35 201.757L144.964 182.47L111.337 201.897L77.1753 182.162L110.804 162.736Z" fill="#F691F1"/>
<path d="M110.804 162.584L77.4188 143.298L111.829 123.42L145.213 142.705L178.842 123.278L213.002 143.012L179.375 162.439L212.758 181.726L178.35 201.604L144.964 182.319L111.337 201.746L77.1753 182.011L110.804 162.584Z" fill="#F692F2"/>
<path d="M110.804 162.432L77.4188 143.145L111.829 123.267L145.213 142.554L178.842 123.125L213.002 142.861L179.375 162.288L212.758 181.573L178.35 201.453L144.964 182.166L111.337 201.593L77.1753 181.858L110.804 162.432Z" fill="#F693F2"/>
<path d="M110.804 162.279L77.4188 142.994L111.829 123.114L145.213 142.401L178.842 122.974L213.002 142.708L179.375 162.135L212.758 181.422L178.35 201.3L144.964 182.013L111.337 201.441L77.1753 181.705L110.804 162.279Z" fill="#F694F2"/>
<path d="M110.804 162.127L77.4188 142.841L111.829 122.963L145.213 142.247L178.842 122.821L213.002 142.555L179.375 161.982L212.758 181.269L178.35 201.147L144.964 181.862L111.337 201.288L77.1753 181.554L110.804 162.127Z" fill="#F795F2"/>
<path d="M110.804 161.974L77.4188 142.688L111.829 122.81L145.213 142.096L178.842 122.668L213.002 142.404L179.375 161.831L212.758 181.116L178.35 200.996L144.964 181.709L111.337 201.135L77.1753 181.401L110.804 161.974Z" fill="#F796F3"/>
<path d="M110.804 161.821L77.4188 142.537L111.829 122.657L145.213 141.943L178.842 122.517L213.002 142.251L179.375 161.678L212.758 180.965L178.35 200.843L144.964 181.556L111.337 200.984L77.1753 181.248L110.804 161.821Z" fill="#F797F3"/>
<path d="M110.804 161.67L77.4188 142.383L111.829 122.505L145.213 141.79L178.842 122.364L213.002 142.098L179.375 161.527L212.758 180.812L178.35 200.692L144.964 181.405L111.337 200.831L77.1753 181.097L110.804 161.67Z" fill="#F798F3"/>
<path d="M110.804 161.517L77.4188 142.231L111.829 122.353L145.213 141.639L178.842 122.213L213.002 141.947L179.375 161.374L212.758 180.661L178.35 200.539L144.964 181.252L111.337 200.678L77.1753 180.944L110.804 161.517Z" fill="#F899F3"/>
<path d="M110.804 161.364L77.4188 142.079L111.829 122.2L145.213 141.486L178.842 122.06L213.002 141.794L179.375 161.221L212.758 180.508L178.35 200.386L144.964 181.101L111.337 200.527L77.1753 180.793L110.804 161.364Z" fill="#F89AF4"/>
<path d="M110.804 161.213L77.4188 141.926L111.829 122.048L145.213 141.333L178.842 121.907L213.002 141.641L179.375 161.07L212.758 180.355L178.35 200.234L144.964 180.948L111.337 200.374L77.1753 180.64L110.804 161.213Z" fill="#F89BF4"/>
<path d="M296.894 228.967L262.343 249L177.894 200.033L212.445 180L296.894 228.967Z" fill="url(#paint2_linear_208_247)"/>
<path d="M98.6196 143.322L103.713 142.178C104.181 143.872 105.861 145.827 108.286 147.209C111.059 148.79 113.106 148.896 114.34 148.173C118.104 145.97 103.764 140.778 111.233 136.409C114.652 134.409 120.269 134.328 126.016 137.605C128.556 139.055 130.554 140.889 131.252 142.65L126.274 143.893C125.461 142.2 124.041 140.793 122.252 139.773C119.479 138.192 117.376 138.186 116.113 138.927C112.407 141.095 126.718 146.305 119.335 150.623C115.973 152.589 110.299 152.672 104.522 149.376C101.317 147.548 99.0292 145.147 98.6177 143.318L98.6196 143.322Z" fill="#DD2AD6"/>
<path d="M126.017 149.623C132.079 146.078 141.096 146.208 147.392 149.801C150.886 151.794 152.539 154.198 152.147 156.629L146.386 156.529C146.58 154.848 145.68 153.405 143.658 152.251C139.875 150.092 134.546 150.107 130.754 152.324C126.961 154.542 127.005 157.621 130.788 159.78C132.809 160.934 135.318 161.434 138.255 161.285L138.501 164.611C134.267 164.885 130.085 163.961 126.563 161.95C120.296 158.374 119.954 153.169 126.016 149.621L126.017 149.623Z" fill="#DD2AD6"/>
<path d="M177.057 167.119L156.947 178.883L152.268 176.214L160.513 171.392L151.33 166.152L143.084 170.975L138.405 168.306L158.514 156.542L163.194 159.211L155.265 163.85L164.449 169.09L172.377 164.451L177.057 167.119Z" fill="#DD2AD6"/>
<path d="M181.851 169.855L186.531 172.523L166.422 184.287L161.742 181.618L181.851 169.855Z" fill="#DD2AD6"/>
<path d="M191.72 179.865L185.251 176.175L189.044 173.957L206.661 184.007L202.869 186.225L196.4 182.534L180.083 192.08L175.403 189.411L191.72 179.865Z" fill="#DD2AD6"/>
<path d="M60.894 82H53.894V103H60.894V82Z" fill="#DD2AD6"/>
<path d="M67.894 96V89H47.894V96H67.894Z" fill="#DD2AD6"/>
<path d="M37.894 67H34.894V77H37.894V67Z" fill="#F89BF4"/>
<path d="M41.894 74V70H30.894V74H41.894Z" fill="#F89BF4"/>
<path d="M47.894 51H44.894V58H47.894V51Z" fill="#F89BF4"/>
<path d="M49.894 56V53H42.894V56H49.894Z" fill="#F89BF4"/>
<defs>
<linearGradient id="paint0_linear_208_247" x1="74.5786" y1="21.7052" x2="127.853" y2="112.907" gradientUnits="userSpaceOnUse">
<stop stop-color="white" stop-opacity="0"/>
<stop offset="1" stop-color="#DD2AD6"/>
</linearGradient>
<linearGradient id="paint1_linear_208_247" x1="-93.2663" y1="222.025" x2="-40.2621" y2="130.3" gradientUnits="userSpaceOnUse">
<stop stop-color="white" stop-opacity="0"/>
<stop offset="1" stop-color="#DD2AD6"/>
</linearGradient>
<linearGradient id="paint2_linear_208_247" x1="155.322" y1="311.056" x2="112.824" y2="237.764" gradientUnits="userSpaceOnUse">
<stop stop-color="white" stop-opacity="0"/>
<stop offset="1" stop-color="#F89BF4"/>
</linearGradient>
</defs>
</svg>
