<svg width="23" height="23" viewBox="0 0 23 23" fill="none" xmlns="http://www.w3.org/2000/svg">
<path d="M1.66667 23C1.22222 23 0.833333 22.8335 0.5 22.5006C0.166667 22.1677 0 21.7793 0 21.3353V4.68878C0 4.24487 0.166667 3.85645 0.5 3.52352C0.833333 3.19059 1.22222 3.02413 1.66667 3.02413H12.9167L11.25 4.68878H1.66667V21.3353H18.3333V11.6803L20 10.0157V21.3353C20 21.7793 19.8333 22.1677 19.5 22.5006C19.1667 22.8335 18.7778 23 18.3333 23H1.66667ZM15.0556 3.24608L16.25 4.41134L8.33333 12.2907V14.6767H10.6944L18.6389 6.74186L19.8056 7.90712L11.3889 16.3414H6.66667V11.6248L15.0556 3.24608ZM19.8056 7.90712L15.0556 3.24608L17.8333 0.471653C18.1481 0.157218 18.5417 0 19.0139 0C19.4861 0 19.8796 0.166466 20.1944 0.499397L22.5278 2.85766C22.8426 3.19059 23 3.58363 23 4.03679C23 4.48995 22.8333 4.87374 22.5 5.18818L19.8056 7.90712Z" fill="#13678A"/>
</svg>
