<svg width="41" height="32" viewBox="0 0 41 32" fill="none" xmlns="http://www.w3.org/2000/svg">
<path d="M1.50208 32C0.802083 32 0.335417 31.6667 0.102083 31C-0.13125 30.3333 0.0354167 29.7667 0.602083 29.3L18.5021 15.25V12.5C18.5021 12.1 18.6437 11.75 18.9271 11.45C19.2104 11.15 19.5521 11 19.9521 11C21.0854 11.0333 22.0437 10.6583 22.8271 9.875C23.6104 9.09167 24.0021 8.13333 24.0021 7C24.0021 5.9 23.6104 4.95833 22.8271 4.175C22.0437 3.39167 21.1021 3 20.0021 3C18.9021 3 17.9604 3.39167 17.1771 4.175C16.3937 4.95833 16.0021 5.9 16.0021 7H13.0021C13.0021 5.06667 13.6854 3.41667 15.0521 2.05C16.4187 0.683333 18.0688 0 20.0021 0C21.9354 0 23.5854 0.666667 24.9521 2C26.3188 3.33333 27.0021 4.96667 27.0021 6.9C27.0021 8.53333 26.4854 9.98333 25.4521 11.25C24.4188 12.5167 23.1021 13.3833 21.5021 13.85V15.25L39.4021 29.3C39.9688 29.7667 40.1354 30.3333 39.9021 31C39.6688 31.6667 39.2021 32 38.5021 32H1.50208ZM6.00208 29H34.0021L20.0021 17.85L6.00208 29Z" fill="#DD2AD6"/>
</svg>
