<svg width="32" height="32" viewBox="0 0 32 32" fill="none" xmlns="http://www.w3.org/2000/svg">
<path d="M16 15C13.8 15 12 14.3 10.6 12.9C9.2 11.5 8.5 9.7 8.5 7.5C8.5 5.3 9.2 3.5 10.6 2.1C12 0.7 13.8 0 16 0C18.2 0 20 0.7 21.4 2.1C22.8 3.5 23.5 5.3 23.5 7.5C23.5 9.7 22.8 11.5 21.4 12.9C20 14.3 18.2 15 16 15ZM0 31.05V26.35C0 25.0833 0.316667 24 0.95 23.1C1.58333 22.2 2.4 21.5167 3.4 21.05C5.63333 20.05 7.775 19.3 9.825 18.8C11.875 18.3 13.9333 18.05 16 18.05C18.0667 18.05 20.1167 18.3083 22.15 18.825C24.1833 19.3417 26.3154 20.0866 28.5461 21.0597C29.5894 21.5306 30.4259 22.2133 31.0556 23.108C31.6852 24.0027 32 25.0833 32 26.35V31.05H0ZM3 28.05H29V26.35C29 25.8167 28.8417 25.3083 28.525 24.825C28.2083 24.3417 27.8167 23.9833 27.35 23.75C25.2167 22.7167 23.2667 22.0083 21.5 21.625C19.7333 21.2417 17.9 21.05 16 21.05C14.1 21.05 12.25 21.2417 10.45 21.625C8.65 22.0083 6.7 22.7167 4.6 23.75C4.13333 23.9833 3.75 24.3417 3.45 24.825C3.15 25.3083 3 25.8167 3 26.35V28.05ZM16 12C17.3 12 18.375 11.575 19.225 10.725C20.075 9.875 20.5 8.8 20.5 7.5C20.5 6.2 20.075 5.125 19.225 4.275C18.375 3.425 17.3 3 16 3C14.7 3 13.625 3.425 12.775 4.275C11.925 5.125 11.5 6.2 11.5 7.5C11.5 8.8 11.925 9.875 12.775 10.725C13.625 11.575 14.7 12 16 12Z" fill="#DD2AD6"/>
</svg>
