<svg width="27" height="27" viewBox="0 0 27 27" fill="none" xmlns="http://www.w3.org/2000/svg">
<path d="M2.25 27C1.65 27 1.125 26.775 0.675 26.325C0.225 25.875 0 25.35 0 24.75V2.25C0 1.65 0.225 1.125 0.675 0.675C1.125 0.225 1.65 0 2.25 0H24.75C25.35 0 25.875 0.225 26.325 0.675C26.775 1.125 27 1.65 27 2.25V24.75C27 25.35 26.775 25.875 26.325 26.325C25.875 26.775 25.35 27 24.75 27H2.25ZM2.25 24.75H24.75V2.25H2.25V24.75ZM4.35 21.1125H22.6875L17.175 13.7625L12.225 20.175L8.7375 15.4125L4.35 21.1125ZM2.25 24.75V2.25V24.75Z" fill="#13678A"/>
</svg>
