<svg width="82" height="20" viewBox="0 0 82 20" fill="none" xmlns="http://www.w3.org/2000/svg">
<path d="M65.5876 0.784302L64.3137 2.05416H65.5876V4.02063H71.4561V17.9458H74.4265V19.2157L75.7004 17.9458V4.02063H80.2947V5.29049L81.5686 4.02063V0.784302H65.5876Z" fill="#9AEBA3"/>
<path d="M59.3067 0.784302L58.0393 2.05416H59.3067V17.9458H62.2621V19.2157L63.5295 17.9458V0.784302H59.3067Z" fill="#9AEBA3"/>
<path d="M50.4623 0.784302L49.2474 2.05416H50.4623V7.55084H42.5172V0.784302H38.4698C38.4698 0.784302 37.2549 2.05883 37.2549 2.05416H38.4698V17.9458H41.3023V19.2157L42.5172 17.9458V10.9097H50.4623V17.9458H53.2949V19.2157L54.5098 17.9458V0.784302H50.4623Z" fill="#9AEBA3"/>
<path d="M28.4911 15.1001C25.1155 15.1001 22.7191 12.7296 22.7191 9.32815C22.7191 5.92669 25.1155 3.55617 28.4911 3.55617C30.2947 3.55617 31.8152 4.2777 33.0262 5.66901L35.7061 3.19527C34.0054 1.13391 31.4031 0 28.2851 0C22.6679 0 18.4934 3.89092 18.4934 9.32787C18.4934 14.7648 22.6676 18.6555 28.2593 18.6555C30.6823 18.6555 32.784 17.9816 34.399 16.717L34.3976 16.718L34.4529 16.7693L34.9137 16.2781C35.1957 16.0172 35.4601 15.7359 35.7058 15.4346L33.0259 12.9609C31.8149 14.378 30.2945 15.0996 28.4908 15.0996L28.4911 15.1001Z" fill="#9AEBA3"/>
<path d="M34.4528 4.53049L35.7058 3.19583L34.3687 4.42998L34.4528 4.53049Z" fill="#9AEBA3"/>
<path d="M5.76215 5.41162C5.76215 4.27798 6.71548 3.35026 9.18922 3.35026C10.6018 3.35026 12.1148 3.71307 13.6042 4.45612L12.935 6.10209L14.1879 4.76744L15.4763 1.59805C13.8014 0.54149 11.4824 0.000549316 9.21483 0.000549316C4.08703 0.000549316 1.61357 2.55165 1.61357 5.61781C1.61357 12.3172 12.1009 9.9982 12.1009 13.3738C12.1009 14.4818 11.0961 15.3063 8.6224 15.3063C6.45781 15.3063 4.19053 14.5333 2.67011 13.4253L1.25293 16.5688C2.85043 17.8056 5.73628 18.656 8.59652 18.656C13.7499 18.656 16.2495 16.0793 16.2495 13.0646C16.2495 6.4423 5.76215 8.73573 5.76215 5.41162Z" fill="#9AEBA3"/>
<path d="M1.91681 15.0958L2.66993 13.4253L1.41699 14.7599L1.91681 15.0958Z" fill="#9AEBA3"/>
<path d="M0 17.894L1.44529 14.7221C2.99587 15.8401 5.30813 16.6201 7.51566 16.6201C10.0385 16.6201 11.0632 15.7882 11.0632 14.6702C11.0632 11.2642 0.36779 13.6044 0.36779 6.84435C0.36779 3.75057 2.8906 1.17648 8.11984 1.17648C10.4324 1.17648 12.7974 1.72258 14.5055 2.78838L13.1916 5.98632C11.4835 5.02441 9.72292 4.55638 8.09373 4.55638C5.57092 4.55638 4.59867 5.49245 4.59867 6.6363C4.59867 9.99035 15.2941 7.67627 15.2941 14.3583C15.2941 17.4001 12.7452 20 7.48927 20C4.57228 20 1.62919 19.142 0 17.894Z" fill="#DAFDBA"/>
<path d="M17.2549 10.5881C17.2549 5.10234 21.4393 1.17648 27.0706 1.17648C30.1962 1.17648 32.8049 2.3203 34.5098 4.40044L31.8233 6.89639C30.6093 5.49231 29.0852 4.76459 27.277 4.76459C23.8932 4.76459 21.4909 7.15638 21.4909 10.5884C21.4909 14.0204 23.8932 16.4122 27.277 16.4122C29.0852 16.4122 30.6093 15.6842 31.8233 14.2542L34.5098 16.7502C32.8049 18.8559 30.1962 20 27.0447 20C21.4396 20 17.2549 16.0741 17.2549 10.5887V10.5881Z" fill="#DAFDBA"/>
<path d="M54.1176 1.96078V19.2157H49.8626V12.1413H41.5099V19.2157H37.2549V1.96078H41.5099V8.76415H49.8626V1.96078H54.1176Z" fill="#DAFDBA"/>
<path d="M58.0393 1.96078H62.353V19.2157H58.0393V1.96078Z" fill="#DAFDBA"/>
<path d="M70.218 5.21472H64.3137V1.96078H80.3921V5.21472H74.4881V19.2157H70.218V5.21472Z" fill="#DAFDBA"/>
</svg>
