<svg width="83" height="20" viewBox="0 0 83 20" fill="none" xmlns="http://www.w3.org/2000/svg">
<path d="M66.4282 0.309296L65.1624 1.64462H66.4282V3.71247H72.2597V18.3555H75.2113V19.6909L76.4772 18.3555V3.71247H81.0425V5.04779L82.3084 3.71247V0.309296H66.4282Z" fill="#13678A"/>
<path d="M59.9462 0.309296L58.6803 1.64462H59.9462V18.3555H62.8978V19.6909L64.1637 18.3555V0.309296H59.9462Z" fill="#13678A"/>
<path d="M51.4071 0.309296L50.1413 1.64462H51.4071V7.42467H43.1287V0.309296H38.9115C38.9115 0.309296 37.6456 1.64953 37.6456 1.64462H38.9115V18.3555H41.8629V19.6909L43.1287 18.3555V10.9567H51.4071V18.3555H54.3585V19.6909L55.6243 18.3555V0.309296H51.4071Z" fill="#13678A"/>
<path d="M28.7847 15.1072C25.3743 15.1072 22.9532 12.7355 22.9532 9.33228C22.9532 5.92911 25.3743 3.55741 28.7847 3.55741C30.607 3.55741 32.1431 4.27931 33.3665 5.67131L36.0741 3.19633C34.3556 1.13421 31.7264 0 28.5764 0C22.9012 0 18.6837 3.89288 18.6837 9.33256C18.6837 14.7722 22.9009 18.6648 28.5502 18.6648C30.9983 18.6648 33.1216 17.9906 34.7532 16.7253L34.7518 16.7264L34.8077 16.7777L35.2733 16.2863C35.5581 16.0253 35.8253 15.7437 36.0735 15.4423L33.366 12.9674C32.1425 14.3853 30.6064 15.1072 28.7841 15.1072H28.7847Z" fill="#13678A"/>
<path d="M34.8081 4.53219L36.0739 3.19687L34.723 4.43164L34.8081 4.53219Z" fill="#13678A"/>
<path d="M5.82157 5.41379C5.82157 4.27958 6.78472 3.35139 9.28396 3.35139C10.7111 3.35139 12.2397 3.71438 13.7444 4.4578L13.0683 6.10461L14.3342 4.76929L15.6358 1.5983C13.944 0.541488 11.601 0 9.30983 0C4.12945 0 1.63022 2.55238 1.63022 5.62008C1.63022 12.3229 12.2257 10.0027 12.2257 13.38C12.2257 14.4885 11.2105 15.3134 8.7113 15.3134C6.5244 15.3134 4.23375 14.54 2.69766 13.4315L1.26587 16.5766C2.87983 17.814 5.79543 18.6648 8.68515 18.6648C13.8917 18.6648 16.4171 16.0868 16.4171 13.0706C16.4171 6.44498 5.82157 8.73956 5.82157 5.41379Z" fill="#13678A"/>
<path d="M1.93673 15.1028L2.69762 13.4315L1.43176 14.7668L1.93673 15.1028Z" fill="#13678A"/>
<path d="M0 17.9122L1.43179 14.7671C2.96788 15.8757 5.25853 16.649 7.44543 16.649C9.94467 16.649 10.9598 15.8241 10.9598 14.7156C10.9598 11.3383 0.364346 13.6587 0.364346 6.95568C0.364346 3.88798 2.86358 1.3356 8.04396 1.3356C10.3349 1.3356 12.6778 1.87709 14.3699 2.9339L13.0683 6.10489C11.3762 5.15109 9.63206 4.68699 8.01809 4.68699C5.51885 4.68699 4.5557 5.61518 4.5557 6.74939C4.5557 10.0752 15.1512 7.78059 15.1512 14.4062C15.1512 17.4224 12.6261 20.0004 7.41929 20.0004C4.52956 20.0004 1.61397 19.1496 0 17.9122H0Z" fill="#012030"/>
<path d="M17.4182 10.6679C17.4182 5.22821 21.6354 1.33533 27.3109 1.33533C30.4609 1.33533 33.09 2.46954 34.8083 4.5322L32.1008 7.00719C30.8773 5.61491 29.3412 4.89329 27.5189 4.89329C24.1085 4.89329 21.6874 7.26499 21.6874 10.6682C21.6874 14.0713 24.1085 16.443 27.5189 16.443C29.3412 16.443 30.8773 15.7211 32.1008 14.3032L34.8083 16.7782C33.09 18.8662 30.4609 20.0007 27.2847 20.0007C21.6357 20.0007 17.4182 16.1078 17.4182 10.6684V10.6679Z" fill="#012030"/>
<path d="M54.3585 1.64462V19.6909H50.1413V12.2921H41.8629V19.6909H37.6456V1.64462H41.8629V8.75999H50.1413V1.64462H54.3585Z" fill="#012030"/>
<path d="M58.6803 1.64462H62.8975V19.6909H58.6803V1.64462Z" fill="#012030"/>
<path d="M70.9938 5.04779H65.1624V1.64462H81.0425V5.04779H75.2113V19.6909H70.9938V5.04779Z" fill="#012030"/>
</svg>
