<svg width="37" height="37" viewBox="0 0 37 37" fill="none" xmlns="http://www.w3.org/2000/svg">
<path d="M29.2 35.6L16.3 22.6C15.5333 22.8667 14.7667 23.0833 14 23.25C13.2333 23.4167 12.45 23.5 11.65 23.5C8.41667 23.5 5.66667 22.375 3.4 20.125C1.13333 17.875 0 15.1333 0 11.9C0 10.8667 0.133333 9.85833 0.4 8.875C0.666666 7.89167 1.05 6.96667 1.55 6.1L8.8 13.35L13.4 9.05L5.95 1.6C6.81667 1.1 7.73333 0.708333 8.7 0.425C9.66667 0.141667 10.65 0 11.65 0C14.95 0 17.7583 1.15833 20.075 3.475C22.3917 5.79167 23.55 8.6 23.55 11.9C23.55 12.7 23.4667 13.4833 23.3 14.25C23.1333 15.0167 22.9167 15.7833 22.65 16.55L35.6 29.45C35.9667 29.8167 36.15 30.2583 36.15 30.775C36.15 31.2917 35.9667 31.7333 35.6 32.1L31.8 35.6C31.4333 35.9667 31 36.15 30.5 36.15C30 36.15 29.5667 35.9667 29.2 35.6ZM30.6 32.75L32.6 30.75L18.95 17.1C19.4833 16.4 19.8833 15.575 20.15 14.625C20.4167 13.675 20.55 12.7667 20.55 11.9C20.55 9.4 19.625 7.28333 17.775 5.55C15.925 3.81667 13.8167 2.93333 11.45 2.9L16.5 8.05C16.8 8.35 16.95 8.71667 16.95 9.15C16.95 9.58333 16.8 9.95 16.5 10.25L9.9 16.45C9.6 16.75 9.23333 16.9 8.8 16.9C8.36667 16.9 8 16.75 7.7 16.45L2.85 11.65C2.95 14.2167 3.85833 16.3333 5.575 18C7.29167 19.6667 9.31667 20.5 11.65 20.5C12.4833 20.5 13.3667 20.3667 14.3 20.1C15.2333 19.8333 16.05 19.4333 16.75 18.9L30.6 32.75Z" fill="#012030"/>
</svg>
