<svg width="36" height="20" viewBox="0 0 36 20" fill="none" xmlns="http://www.w3.org/2000/svg">
<path d="M1.5 20C1.06667 20 0.708333 19.8583 0.425 19.575C0.141667 19.2917 0 18.9333 0 18.5C0 18.0667 0.141667 17.7083 0.425 17.425C0.708333 17.1417 1.06667 17 1.5 17C1.93333 17 2.29167 17.1417 2.575 17.425C2.85833 17.7083 3 18.0667 3 18.5C3 18.9333 2.85833 19.2917 2.575 19.575C2.29167 19.8583 1.93333 20 1.5 20ZM1.5 11.5C1.06667 11.5 0.708333 11.3583 0.425 11.075C0.141667 10.7917 0 10.4333 0 10C0 9.56667 0.141667 9.20833 0.425 8.925C0.708333 8.64167 1.06667 8.5 1.5 8.5C1.93333 8.5 2.29167 8.64167 2.575 8.925C2.85833 9.20833 3 9.56667 3 10C3 10.4333 2.85833 10.7917 2.575 11.075C2.29167 11.3583 1.93333 11.5 1.5 11.5ZM1.5 3C1.06667 3 0.708333 2.85833 0.425 2.575C0.141667 2.29167 0 1.93333 0 1.5C0 1.06667 0.141667 0.708333 0.425 0.425C0.708333 0.141667 1.06667 0 1.5 0C1.93333 0 2.29167 0.141667 2.575 0.425C2.85833 0.708333 3 1.06667 3 1.5C3 1.93333 2.85833 2.29167 2.575 2.575C2.29167 2.85833 1.93333 3 1.5 3ZM8.5 20V17H36V20H8.5ZM8.5 11.5V8.5H36V11.5H8.5ZM8.5 3V0H36V3H8.5Z" fill="#012030"/>
</svg>
