<?xml version="1.0" encoding="UTF-8"?><svg id="Layer_1" xmlns="http://www.w3.org/2000/svg" xmlns:xlink="http://www.w3.org/1999/xlink" viewBox="0 0 2195 1799"><defs><style>.cls-1{fill:url(#linear-gradient-2);}.cls-2{fill:#fff;}.cls-3{fill:#bebebf;}.cls-4{fill:#31464c;}.cls-5{fill:#dd2ad6;}.cls-6{fill:#012030;}.cls-7{fill:#ee5cf2;}.cls-8{fill:url(#linear-gradient-3);}.cls-9{fill:#ba13ba;}.cls-10{fill:url(#linear-gradient);}.cls-11{fill:url(#linear-gradient-4);}</style><linearGradient id="linear-gradient" x1="1097" y1="1799" x2="1097" y2="0" gradientUnits="userSpaceOnUse"><stop offset="0" stop-color="#dd2ad6"/><stop offset=".17" stop-color="#d929d3"/><stop offset=".31" stop-color="#cf29cb"/><stop offset=".43" stop-color="#be28be"/><stop offset=".56" stop-color="#a627ac"/><stop offset=".67" stop-color="#862695"/><stop offset=".79" stop-color="#602478"/><stop offset=".89" stop-color="#342256"/><stop offset="1" stop-color="#012030"/></linearGradient><linearGradient id="linear-gradient-2" x1="1097.5" y1="828" x2="1097.5" y2="155" gradientUnits="userSpaceOnUse"><stop offset="0" stop-color="#bebebf"/><stop offset="1" stop-color="#f1f2f6"/></linearGradient><linearGradient id="linear-gradient-3" x1="1097.5" y1="828" x2="1097.5" y2="1799" gradientUnits="userSpaceOnUse"><stop offset="0" stop-color="#bebebf"/><stop offset=".02" stop-color="#b5b9bc"/><stop offset=".13" stop-color="#8aa3af"/><stop offset=".25" stop-color="#6591a3"/><stop offset=".38" stop-color="#47819a"/><stop offset=".51" stop-color="#307593"/><stop offset=".65" stop-color="#1f6d8d"/><stop offset=".8" stop-color="#16688a"/><stop offset="1" stop-color="#13678a"/></linearGradient><linearGradient id="linear-gradient-4" x1="1097.5" y1="1799" x2="1097.5" y2="641" gradientUnits="userSpaceOnUse"><stop offset="0" stop-color="#012030"/><stop offset=".29" stop-color="#012232"/><stop offset=".49" stop-color="#03293b"/><stop offset=".65" stop-color="#06344a"/><stop offset=".8" stop-color="#0a455f"/><stop offset=".94" stop-color="#0f5b7a"/><stop offset="1" stop-color="#13678a"/></linearGradient></defs><rect class="cls-10" width="2194" height="1799"/><polygon class="cls-1" points="0 654 853 361 1335.37 545.33 1765 155 2194 569.33 2195 828 0 828 0 654"/><polygon class="cls-3" points="853 361 613.93 457.22 701.33 447.89 818.67 457.22 920 420.05 821.33 409.11 853 361"/><polygon class="cls-3" points="465.81 516.83 682.67 478.83 920 502.17 664 535 963.43 566.67 647 612 395 582.67 0 654 465.81 516.83"/><polygon class="cls-3" points="941 529 1058.67 502.17 1189.53 516.83 941 529"/><polygon class="cls-3" points="1765 155 1753.55 231.32 1813 255 1681.73 300 1853 287 1687.46 409.11 1826.67 462.65 1512.2 502.17 1609.92 462.65 1487.12 447.89 1600.88 395.74 1485.31 409.11 1765 155"/><polygon class="cls-3" points="1424 478.83 1487.12 462.65 1531.29 475.03 1424 478.83"/><polygon class="cls-3" points="1368.12 515.58 1335.37 545.33 1157.58 641.33 1442.34 676 1669.15 630.67 1436.2 595.79 1681.73 545.41 1442.34 515.58 1368.12 515.58"/><polygon class="cls-3" points="1888 429.19 1984 420.05 2165 572 1888 429.19"/><polygon class="cls-2" points="1765 155 1757.75 203.35 1844 260 1807 277 1869 277 1938.96 323.01 1765 155"/><polygon class="cls-2" points="853 361 821.33 409.11 920 420.05 1013 442 924 457.22 1069 470.74 1272.29 521.23 853 361"/><rect class="cls-8" y="828" width="2195" height="971"/><path class="cls-2" d="M1845,467l198,94-126.33-32s99.33,48,97.33,48-205-45-205-45l-109-23,145-42Z"/><polygon class="cls-2" points="1986.67 409.11 1986.67 369.09 2083.54 462.65 1986.67 409.11"/><polygon class="cls-2" points="1092 529 1294.5 545.41 1112 556 972 595.79 1092 529"/><polygon class="cls-2" points="1888 289.5 1871.5 361 1986.67 409.11 1986.67 369.09 1888 289.5"/><path class="cls-11" d="M2195,953.13c-52.25-108.13-195.74-172.27-266-185.85-113-21.84-154.04-24.35-377-15.82-222.96,8.54-752.61,76.32-912.03,44.19-159.42-32.14,496.33-154.65,496.33-154.65,0,0-604.23,58.24-588.68,162.68,15.55,104.44,858.04-2.01,1047.27,0,189.24,2.01,287.73,31.94,301.03,76.57,20.41,68.54-71.92,119.75-155.54,158.17-70.73,32.49-713.38,317.58-1740.38,364.58v396H1294s700.39-391.48,858-601.17c18.89-25.14,33-49.27,43-72.39v-172.31Z"/><g><path class="cls-6" d="M1784.95,1402.61c.23,.12-30.73-18.71-30.73-18.71l7.28-27.57,16.1,13.26,7.35,33.03Z"/><polygon class="cls-6" points="1433.51 1607.57 1401.1 1587.77 1418.56 1577.69 1433.51 1607.57"/><g><polygon class="cls-9" points="1921.92 1287.32 1373.07 1604.2 1382.82 1462.84 1920.24 1152.56 1921.92 1287.32"/><polygon class="cls-9" points="1572.59 1235.3 1920.24 1034.59 1920.24 1152.56 1534.83 1375.07 1572.59 1235.3"/><path class="cls-6" d="M1822.16,1266.8c-37.52,21.66-67.93,74.09-67.93,117.1l135.87-78.44c0-43.01-30.42-60.32-67.93-38.65Z"/><path class="cls-6" d="M1469.04,1470.68c-37.52,21.66-67.93,74.09-67.93,117.1l135.87-78.44c0-43.01-30.42-60.32-67.93-38.65Z"/><polygon class="cls-6" points="1565.1 1343.72 1589.98 1245.31 1668.68 1199.87 1668.68 1283.92 1565.1 1343.72"/><polygon class="cls-6" points="1690.2 1187.45 1690.2 1271.49 1780.33 1219.45 1780.33 1135.41 1690.2 1187.45"/><polygon class="cls-6" points="1799.17 1124.54 1799.17 1208.58 1901.4 1149.55 1901.4 1065.51 1799.17 1124.54"/><polygon class="cls-6" points="1668.68 1306.28 1641.1 1322.2 1641.1 1314.49 1668.68 1298.57 1668.68 1306.28"/><polygon class="cls-6" points="1780.33 1241.81 1752.76 1257.74 1752.76 1250.03 1780.33 1234.1 1780.33 1241.81"/><ellipse class="cls-4" cx="1470.93" cy="1543.82" rx="73.93" ry="42.68" transform="translate(-604.64 2032.72) rotate(-59.64)"/><ellipse class="cls-4" cx="1824.05" cy="1339.94" rx="73.93" ry="42.68" transform="translate(-254.08 2236.59) rotate(-59.64)"/><ellipse class="cls-6" cx="1470.93" cy="1543.82" rx="36.96" ry="21.34" transform="translate(-604.64 2032.72) rotate(-59.64)"/><ellipse class="cls-6" cx="1824.05" cy="1339.94" rx="36.96" ry="21.34" transform="translate(-254.08 2236.59) rotate(-59.64)"/><polygon class="cls-6" points="1945 1242.43 1922.13 1255.64 1922.13 1287.25 1945 1274.05 1945 1242.43"/><polygon class="cls-6" points="1375.23 1570.96 1357.07 1581.45 1357.07 1613.06 1372.54 1604.13 1375.23 1570.96"/></g><g><polygon class="cls-5" points="1375.65 1604.33 1114 1453.27 1120.63 1310.06 1382.28 1461.12 1375.65 1604.33"/><polygon class="cls-6" points="1095.06 1430.18 1356.71 1581.25 1356.71 1612.86 1095.06 1461.8 1095.06 1430.18"/><ellipse class="cls-6" cx="1149.71" cy="1371.91" rx="14.02" ry="22.78" transform="translate(-474.15 618.88) rotate(-25.16)"/><ellipse class="cls-6" cx="1337.26" cy="1484.82" rx="14.02" ry="22.78" transform="translate(-504.36 709.32) rotate(-25.16)"/><path class="cls-6" d="M1249.87,1418.54c.09-3.53-2.04-7.66-4.92-9.39s-5.43-.42-5.85,2.9h-.02s-4.43,58.4-4.43,58.4h.02c-.02,.13-.04,.25-.05,.38-.27,3.61,1.92,7.99,4.91,9.79s5.63,.33,5.9-3.28c0-.13,0-.26,.01-.39h.02s4.43-58.4,4.43-58.4h-.02Z"/><path class="cls-6" d="M1269.57,1430.4c.09-3.53-2.04-7.66-4.92-9.39s-5.43-.42-5.85,2.9h-.02s-4.43,58.4-4.43,58.4h.02c-.02,.13-.04,.25-.05,.38-.27,3.61,1.92,7.99,4.91,9.79,2.98,1.8,5.63,.33,5.9-3.28,0-.13,0-.26,.01-.39h.02s4.43-58.4,4.43-58.4h-.02Z"/><path class="cls-6" d="M1288.65,1441.89c.09-3.53-2.04-7.66-4.92-9.39-2.88-1.73-5.43-.42-5.85,2.9h-.02s-4.43,58.4-4.43,58.4h.02c-.02,.13-.04,.25-.05,.38-.27,3.61,1.92,7.99,4.91,9.79s5.63,.33,5.9-3.28c0-.13,0-.26,.01-.39h.02s4.43-58.4,4.43-58.4h-.02Z"/><path class="cls-6" d="M1308.36,1453.75c.09-3.53-2.04-7.66-4.92-9.39s-5.43-.42-5.85,2.9h-.02s-4.43,58.4-4.43,58.4h.02c-.02,.13-.04,.25-.05,.38-.27,3.61,1.92,7.99,4.91,9.79s5.63,.33,5.9-3.28c0-.13,0-.26,.01-.39h.02s4.43-58.4,4.43-58.4h-.02Z"/><path class="cls-6" d="M1192.01,1383.71c.09-3.53-2.04-7.66-4.92-9.39s-5.43-.42-5.85,2.9h-.02s-4.43,58.4-4.43,58.4h.02c-.02,.13-.04,.25-.05,.38-.27,3.61,1.92,7.99,4.91,9.79s5.63,.33,5.9-3.28c0-.13,0-.26,.01-.39h.02s4.43-58.4,4.43-58.4h-.02Z"/><path class="cls-6" d="M1211.08,1395.19c.09-3.53-2.04-7.66-4.92-9.39s-5.43-.42-5.85,2.9h-.02s-4.43,58.4-4.43,58.4h.02c-.02,.13-.04,.25-.05,.38-.27,3.61,1.92,7.99,4.91,9.79s5.63,.33,5.9-3.28c0-.13,0-.26,.01-.39h.02s4.43-58.4,4.43-58.4h-.02Z"/><path class="cls-6" d="M1230.16,1406.67c.09-3.53-2.04-7.66-4.92-9.39-2.88-1.73-5.43-.42-5.85,2.9h-.02s-4.43,58.4-4.43,58.4h.02c-.02,.13-.04,.25-.05,.38-.27,3.61,1.92,7.99,4.91,9.79,2.98,1.8,5.63,.33,5.9-3.28,0-.13,0-.26,.01-.39h.02s4.43-58.4,4.43-58.4h-.02Z"/></g><g><polygon class="cls-5" points="1534.77 1374.81 1273.13 1223.75 1311.96 1085.89 1571.71 1236.01 1534.77 1374.81"/><polygon class="cls-6" points="1522.82 1346.85 1290.76 1215.2 1318.23 1110.06 1550.29 1244.56 1522.82 1346.85"/></g><polygon class="cls-7" points="1660.78 884.58 1311.69 1086.13 1571.45 1236.09 1920.53 1034.55 1660.78 884.58"/><polygon class="cls-7" points="1272.92 1225.08 1120.84 1311.08 1382.64 1463.35 1535.51 1375.05 1272.92 1225.08"/><polygon class="cls-4" points="1112.58 1420.94 1095 1429.26 1356.8 1581.54 1375.18 1570.91 1112.58 1420.94"/><polygon class="cls-6" points="1375.18 1570.91 1372.54 1604.13 1356.71 1612.86 1356.8 1581.54 1375.18 1570.91"/><polygon class="cls-4" points="1945 1242.43 1921.23 1232.14 1922.13 1255.64 1945 1242.43"/></g></svg>