<svg width="36" height="32" viewBox="0 0 36 32" fill="none" xmlns="http://www.w3.org/2000/svg">
<path d="M4 27.8V30.5C4 30.9333 3.85833 31.2917 3.575 31.575C3.29167 31.8583 2.93333 32 2.5 32H1.5C1.06667 32 0.708333 31.8583 0.425 31.575C0.141667 31.2917 0 30.9333 0 30.5V14.3L4.25 1.5C4.41667 1.03333 4.69167 0.666666 5.075 0.4C5.45833 0.133333 5.9 0 6.4 0H29.6C30.1 0 30.5417 0.133333 30.925 0.4C31.3083 0.666666 31.5833 1.03333 31.75 1.5L36 14.3V30.5C36 30.9333 35.8583 31.2917 35.575 31.575C35.2917 31.8583 34.9333 32 34.5 32H33.45C33.0167 32 32.6667 31.8583 32.4 31.575C32.1333 31.2917 32 30.9333 32 30.5V27.8H4ZM4.15 11.3H31.85L29.1 3H6.9L4.15 11.3ZM3 14.3V24.8V14.3ZM8.3 22.3C9.06667 22.3 9.70833 22.0333 10.225 21.5C10.7417 20.9667 11 20.3333 11 19.6C11 18.8333 10.7417 18.175 10.225 17.625C9.70833 17.075 9.06667 16.8 8.3 16.8C7.53333 16.8 6.875 17.075 6.325 17.625C5.775 18.175 5.5 18.8333 5.5 19.6C5.5 20.3667 5.775 21.0083 6.325 21.525C6.875 22.0417 7.53333 22.3 8.3 22.3ZM27.75 22.3C28.5167 22.3 29.175 22.0333 29.725 21.5C30.275 20.9667 30.55 20.3333 30.55 19.6C30.55 18.8333 30.275 18.175 29.725 17.625C29.175 17.075 28.5167 16.8 27.75 16.8C26.9833 16.8 26.3417 17.075 25.825 17.625C25.3083 18.175 25.05 18.8333 25.05 19.6C25.05 20.3667 25.3167 21.0083 25.85 21.525C26.3833 22.0417 27.0167 22.3 27.75 22.3ZM3 24.8H33V14.3H3V24.8Z" fill="#DD2AD6"/>
</svg>
