<svg width="391" height="310" viewBox="0 0 391 310" fill="none" xmlns="http://www.w3.org/2000/svg">
<g clip-path="url(#clip0_209_1045)">
<path d="M390.822 0H0V309.805H390.822V0Z" fill="url(#paint0_linear_209_1045)"/>
<path d="M0 112.625L151.947 62.1677L237.872 93.9111L314.403 26.6925L390.822 98.0441L391 142.59H0V112.625Z" fill="url(#paint1_linear_209_1045)"/>
<path d="M151.947 62.1677L109.361 78.7377L124.929 77.131L145.831 78.7377L163.881 72.3366L146.305 70.4527L151.947 62.1677Z" fill="#BEBEBF"/>
<path d="M82.9757 89.0031L121.605 82.4591L163.882 86.4785L118.28 92.1321L171.618 97.586L115.251 105.392L70.3622 100.341L0 112.625L82.9757 89.0031Z" fill="#BEBEBF"/>
<path d="M167.622 91.0989L188.583 86.4785L211.893 89.0031L167.622 91.0989Z" fill="#BEBEBF"/>
<path d="M314.403 26.6925L312.364 39.8355L322.954 43.9135L299.57 51.6629L330.079 49.4242L300.591 70.4527L325.389 79.6728L269.371 86.4785L286.778 79.6728L264.904 77.131L285.168 68.1502L264.581 70.4527L314.403 26.6925Z" fill="#BEBEBF"/>
<path d="M253.66 82.4591L264.904 79.6727L272.772 81.8047L253.66 82.4591Z" fill="#BEBEBF"/>
<path d="M243.706 88.7878L237.872 93.9111L206.202 110.443L256.927 116.414L297.329 108.607L255.833 102.601L299.57 93.9248L256.927 88.7878H243.706Z" fill="#BEBEBF"/>
<path d="M336.313 73.9106L353.414 72.3366L385.656 98.5039L336.313 73.9106Z" fill="#BEBEBF"/>
<path d="M314.403 26.6925L313.112 35.0188L328.476 44.7745L321.885 47.7021H332.929L345.391 55.6254L314.403 26.6925Z" fill="white"/>
<path d="M151.947 62.1677L146.305 70.4527L163.882 72.3366L180.448 76.1166L164.594 78.7377L190.423 81.0659L226.636 89.7608L151.947 62.1677Z" fill="white"/>
<path d="M391 142.59H0V309.805H391V142.59Z" fill="url(#paint2_linear_209_1045)"/>
<path d="M328.654 80.4219L363.924 96.6096L341.42 91.0989C341.42 91.0989 359.114 99.3649 358.758 99.3649C358.402 99.3649 322.241 91.6155 322.241 91.6155L302.825 87.6547L328.654 80.4219Z" fill="white"/>
<path d="M353.89 70.4527V63.5609L371.145 79.6728L353.89 70.4527Z" fill="white"/>
<path d="M194.52 91.0989L230.592 93.9248L198.083 95.7485L173.144 102.601L194.52 91.0989Z" fill="white"/>
<path d="M336.313 49.8547L333.374 62.1677L353.89 70.4527V63.5608L336.313 49.8547Z" fill="white"/>
<path d="M391 164.138C381.693 145.517 356.132 134.472 343.617 132.133C323.488 128.372 316.177 127.94 276.461 129.409C236.745 130.879 142.397 142.552 113.999 137.019C85.6014 131.484 202.412 110.386 202.412 110.386C202.412 110.386 94.7788 120.416 97.5487 138.401C100.319 156.387 250.393 138.055 284.101 138.401C317.811 138.748 335.355 143.902 337.724 151.587C341.36 163.391 324.913 172.21 310.018 178.826C297.418 184.421 182.942 233.516 0 241.61V309.805H230.503C230.503 309.805 355.265 242.388 383.34 206.278C386.705 201.948 389.219 197.793 391 193.812V164.138Z" fill="url(#paint3_linear_209_1045)"/>
<path d="M317.957 241.543C317.998 241.564 312.483 238.321 312.483 238.321L313.78 233.573L316.648 235.856L317.957 241.545V241.543Z" fill="#012030"/>
<path d="M255.354 276.839L249.581 273.429L252.691 271.693L255.354 276.839Z" fill="#012030"/>
<path d="M342.356 221.689L244.588 276.259L246.325 251.915L342.056 198.482L342.356 221.689Z" fill="#BA13BA"/>
<path d="M280.129 212.73L342.056 178.166V198.482L273.403 236.8L280.129 212.73Z" fill="#BA13BA"/>
<path d="M324.585 218.155C317.902 221.885 312.485 230.914 312.485 238.321L336.688 224.813C336.688 217.406 331.269 214.425 324.587 218.157L324.585 218.155Z" fill="#012030"/>
<path d="M261.683 253.265C255 256.995 249.583 266.024 249.583 273.431L273.786 259.923C273.786 252.516 268.367 249.535 261.685 253.267L261.683 253.265Z" fill="#012030"/>
<path d="M278.795 231.401L283.227 214.454L297.246 206.629V221.103L278.795 231.401Z" fill="#012030"/>
<path d="M301.079 204.49V218.963L317.134 210.001V195.528L301.079 204.49Z" fill="#012030"/>
<path d="M320.49 193.657V208.129L338.7 197.963V183.491L320.49 193.657Z" fill="#012030"/>
<path d="M297.246 224.954L292.333 227.695V226.368L297.246 223.626V224.954Z" fill="#012030"/>
<path d="M317.134 213.852L312.223 216.595V215.267L317.134 212.524V213.852Z" fill="#012030"/>
<path d="M268.579 269.572C272.255 263.505 272.298 256.923 268.675 254.871C265.052 252.82 259.135 256.075 255.459 262.142C251.783 268.209 251.74 274.791 255.363 276.842C258.986 278.894 264.903 275.639 268.579 269.572Z" fill="#31464C"/>
<path d="M331.481 234.463C335.157 228.396 335.2 221.814 331.577 219.762C327.954 217.711 322.037 220.966 318.36 227.033C314.684 233.1 314.641 239.682 318.264 241.734C321.887 243.785 327.804 240.53 331.481 234.463Z" fill="#31464C"/>
<path d="M265.299 267.714C267.137 264.681 267.158 261.391 265.347 260.365C263.535 259.339 260.577 260.966 258.739 263.999C256.901 267.033 256.88 270.323 258.691 271.349C260.503 272.375 263.461 270.747 265.299 267.714Z" fill="#012030"/>
<path d="M328.201 232.605C330.038 229.572 330.06 226.282 328.248 225.256C326.437 224.23 323.478 225.857 321.641 228.891C319.803 231.924 319.781 235.214 321.593 236.24C323.404 237.266 326.363 235.639 328.201 232.605Z" fill="#012030"/>
<path d="M346.467 213.958L342.393 216.233V221.677L346.467 219.404V213.958Z" fill="#012030"/>
<path d="M244.973 270.534L241.738 272.341V277.784L244.494 276.247L244.973 270.534Z" fill="#012030"/>
<path d="M245.047 276.281L198.439 250.267L199.62 225.605L246.228 251.619L245.047 276.281Z" fill="#DD2AD6"/>
<path d="M195.065 246.291L241.674 272.306V277.75L195.065 251.736V246.291Z" fill="#012030"/>
<path d="M206.532 239.793C207.78 239.226 208.02 237.177 207.067 235.216C206.114 233.255 204.33 232.125 203.081 232.692C201.833 233.259 201.593 235.308 202.546 237.269C203.499 239.23 205.283 240.36 206.532 239.793Z" fill="#012030"/>
<path d="M239.94 259.236C241.189 258.669 241.428 256.62 240.475 254.659C239.523 252.698 237.738 251.568 236.49 252.135C235.241 252.701 235.002 254.751 235.954 256.712C236.907 258.673 238.692 259.803 239.94 259.236Z" fill="#012030"/>
<path d="M222.642 244.286C222.658 243.678 222.279 242.967 221.765 242.669C221.252 242.371 220.798 242.597 220.723 243.169H220.72L219.931 253.226H219.934C219.931 253.248 219.927 253.269 219.925 253.291C219.877 253.913 220.267 254.667 220.8 254.977C221.333 255.287 221.803 255.034 221.851 254.412C221.851 254.39 221.851 254.367 221.853 254.345H221.856L222.645 244.288H222.642V244.286Z" fill="#012030"/>
<path d="M226.151 246.329C226.167 245.721 225.788 245.009 225.275 244.711C224.762 244.414 224.308 244.639 224.233 245.211H224.229L223.44 255.268H223.444C223.44 255.29 223.436 255.311 223.435 255.333C223.387 255.955 223.777 256.709 224.309 257.019C224.84 257.329 225.312 257.076 225.36 256.454C225.36 256.432 225.36 256.41 225.362 256.387H225.366L226.155 246.33H226.151V246.329Z" fill="#012030"/>
<path d="M229.55 248.307C229.566 247.699 229.186 246.988 228.673 246.69C228.16 246.392 227.706 246.618 227.631 247.19H227.628L226.839 257.247H226.842C226.839 257.269 226.835 257.29 226.833 257.312C226.785 257.934 227.175 258.688 227.708 258.998C228.241 259.308 228.711 259.055 228.759 258.433C228.759 258.411 228.759 258.388 228.761 258.366H228.764L229.553 248.309H229.55V248.307Z" fill="#012030"/>
<path d="M233.061 250.35C233.077 249.742 232.697 249.031 232.184 248.733C231.671 248.435 231.217 248.66 231.142 249.232H231.139L230.35 259.289H230.353C230.35 259.311 230.346 259.332 230.344 259.354C230.296 259.976 230.686 260.73 231.219 261.04C231.752 261.35 232.222 261.097 232.27 260.476C232.27 260.453 232.27 260.431 232.272 260.408H232.275L233.064 250.351H233.061V250.35Z" fill="#012030"/>
<path d="M212.335 238.288C212.351 237.68 211.972 236.969 211.459 236.671C210.946 236.373 210.492 236.599 210.417 237.17H210.413L209.624 247.227H209.628C209.624 247.25 209.621 247.271 209.619 247.293C209.571 247.915 209.961 248.669 210.493 248.979C211.026 249.289 211.496 249.036 211.544 248.414C211.544 248.392 211.544 248.369 211.546 248.347H211.55L212.339 238.29H212.335V238.288Z" fill="#012030"/>
<path d="M215.732 240.265C215.748 239.657 215.369 238.946 214.856 238.648C214.343 238.35 213.889 238.576 213.814 239.147H213.81L213.021 249.204H213.025C213.021 249.227 213.018 249.247 213.016 249.27C212.968 249.892 213.358 250.646 213.89 250.956C214.423 251.266 214.893 251.013 214.941 250.391C214.941 250.369 214.941 250.346 214.943 250.324H214.947L215.736 240.267H215.732V240.265Z" fill="#012030"/>
<path d="M219.131 242.242C219.147 241.634 218.768 240.923 218.255 240.625C217.741 240.327 217.287 240.553 217.212 241.124H217.209L216.42 251.181H216.423C216.42 251.204 216.416 251.224 216.414 251.247C216.366 251.869 216.756 252.623 217.289 252.933C217.82 253.243 218.292 252.99 218.34 252.368C218.34 252.346 218.34 252.323 218.342 252.301H218.345L219.134 242.244H219.131V242.242Z" fill="#012030"/>
<path d="M273.392 236.755L226.785 210.741L233.702 187.001L279.972 212.853L273.392 236.755Z" fill="#DD2AD6"/>
<path d="M271.263 231.94L229.926 209.269L234.819 191.163L276.157 214.325L271.263 231.94Z" fill="#012030"/>
<path d="M295.838 152.333L233.654 187.042L279.926 212.867L342.108 178.159L295.838 152.333Z" fill="#EE5CF2"/>
<path d="M226.748 210.97L199.658 225.78L246.293 252.003L273.524 236.797L226.748 210.97Z" fill="#EE5CF2"/>
<path d="M198.186 244.699L195.055 246.132L241.69 272.356L244.964 270.526L198.186 244.699Z" fill="#31464C"/>
<path d="M244.964 270.526L244.493 276.247L241.674 277.75L241.69 272.356L244.964 270.526Z" fill="#012030"/>
<path d="M346.467 213.958L342.233 212.186L342.393 216.233L346.467 213.958Z" fill="#31464C"/>
</g>
<defs>
<linearGradient id="paint0_linear_209_1045" x1="195.411" y1="309.805" x2="195.411" y2="0" gradientUnits="userSpaceOnUse">
<stop stop-color="#DD2AD6"/>
<stop offset="0.17" stop-color="#D929D3"/>
<stop offset="0.31" stop-color="#CF29CB"/>
<stop offset="0.43" stop-color="#BE28BE"/>
<stop offset="0.56" stop-color="#A627AC"/>
<stop offset="0.67" stop-color="#862695"/>
<stop offset="0.79" stop-color="#602478"/>
<stop offset="0.89" stop-color="#342256"/>
<stop offset="1" stop-color="#012030"/>
</linearGradient>
<linearGradient id="paint1_linear_209_1045" x1="195.5" y1="142.59" x2="195.5" y2="26.6925" gradientUnits="userSpaceOnUse">
<stop stop-color="#BEBEBF"/>
<stop offset="1" stop-color="#F1F2F6"/>
</linearGradient>
<linearGradient id="paint2_linear_209_1045" x1="195.5" y1="142.59" x2="195.5" y2="309.805" gradientUnits="userSpaceOnUse">
<stop stop-color="#BEBEBF"/>
<stop offset="0.02" stop-color="#B5B9BC"/>
<stop offset="0.13" stop-color="#8AA3AF"/>
<stop offset="0.25" stop-color="#6591A3"/>
<stop offset="0.38" stop-color="#47819A"/>
<stop offset="0.51" stop-color="#307593"/>
<stop offset="0.65" stop-color="#1F6D8D"/>
<stop offset="0.8" stop-color="#16688A"/>
<stop offset="1" stop-color="#13678A"/>
</linearGradient>
<linearGradient id="paint3_linear_209_1045" x1="195.5" y1="309.805" x2="195.5" y2="110.386" gradientUnits="userSpaceOnUse">
<stop stop-color="#012030"/>
<stop offset="0.29" stop-color="#012232"/>
<stop offset="0.49" stop-color="#03293B"/>
<stop offset="0.65" stop-color="#06344A"/>
<stop offset="0.8" stop-color="#0A455F"/>
<stop offset="0.94" stop-color="#0F5B7A"/>
<stop offset="1" stop-color="#13678A"/>
</linearGradient>
<clipPath id="clip0_209_1045">
<rect width="391" height="309.805" fill="white"/>
</clipPath>
</defs>
</svg>
